<?xml version="1.0" encoding="utf-8" standalone="no"?>
<!DOCTYPE svg PUBLIC "-//W3C//DTD SVG 1.1//EN"
  "http://www.w3.org/Graphics/SVG/1.1/DTD/svg11.dtd">
<svg xmlns:xlink="http://www.w3.org/1999/xlink" width="864pt" height="324pt" viewBox="0 0 864 324" xmlns="http://www.w3.org/2000/svg" version="1.1">
 <metadata>
  <rdf:RDF xmlns:dc="http://purl.org/dc/elements/1.1/" xmlns:cc="http://creativecommons.org/ns#" xmlns:rdf="http://www.w3.org/1999/02/22-rdf-syntax-ns#">
   <cc:Work>
    <dc:type rdf:resource="http://purl.org/dc/dcmitype/StillImage"/>
    <dc:date>2026-04-29T06:29:57.433116</dc:date>
    <dc:format>image/svg+xml</dc:format>
    <dc:creator>
     <cc:Agent>
      <dc:title>Matplotlib v3.10.9, https://matplotlib.org/</dc:title>
     </cc:Agent>
    </dc:creator>
   </cc:Work>
  </rdf:RDF>
 </metadata>
 <defs>
  <style type="text/css">*{stroke-linejoin: round; stroke-linecap: butt}</style>
 </defs>
 <g id="figure_1">
  <g id="patch_1">
   <path d="M 0 324 
L 864 324 
L 864 0 
L 0 0 
z
" style="fill: #ffffff"/>
  </g>
  <g id="axes_1">
   <g id="patch_2">
    <path d="M 44.57 282.04 
L 423.557479 282.04 
L 423.557479 50.64 
L 44.57 50.64 
z
" style="fill: #ffffff"/>
   </g>
   <g id="FillBetweenPolyCollection_1">
    <defs>
     <path id="m42a8c7ace1" d="M 61.796704 -154.235154 
L 61.796704 -92.415854 
L 72.563393 -69.293559 
L 83.330083 -70.342826 
L 94.096773 -70.668161 
L 104.863463 -95.835032 
L 115.630152 -107.882103 
L 126.396842 -84.718092 
L 137.163532 -77.957564 
L 147.930222 -216.215513 
L 158.696911 -126.238692 
L 61.796704 -73.077864 
L 72.563393 -90.557737 
L 83.330083 -61.51784 
L 94.096773 -81.907122 
L 104.863463 -75.659889 
L 115.630152 -56.820508 
L 126.396842 -69.764539 
L 137.163532 -61.565206 
L 147.930222 -69.871423 
L 158.696911 -93.195004 
L 61.796704 -70.157347 
L 72.563393 -81.191139 
L 83.330083 -79.034601 
L 94.096773 -73.017955 
L 104.863463 -52.478182 
L 115.630152 -68.085496 
L 126.396842 -95.270029 
L 137.163532 -80.722175 
L 147.930222 -77.218487 
L 158.696911 -105.332643 
L 169.463601 -69.77232 
L 180.230291 -55.727639 
L 190.996981 -73.842529 
L 201.76367 -85.370713 
L 212.53036 -93.758929 
L 223.29705 -78.349362 
L 234.06374 -76.710151 
L 244.830429 -78.672621 
L 255.597119 -91.346402 
L 266.363809 -77.655006 
L 277.130499 -83.107877 
L 287.897188 -107.8527 
L 298.663878 -75.523557 
L 309.430568 -126.979503 
L 320.197258 -226.930642 
L 330.963947 -77.848554 
L 341.730637 -156.016386 
L 352.497327 -140.305881 
L 363.264017 -149.920731 
L 374.030706 -120.810968 
L 384.797396 -87.279526 
L 395.564086 -75.037507 
L 406.330776 -103.251336 
L 406.330776 -235.298808 
L 406.330776 -235.298808 
L 395.564086 -200.99935 
L 384.797396 -215.545773 
L 374.030706 -203.05373 
L 363.264017 -252.232112 
L 352.497327 -227.152381 
L 341.730637 -262.841818 
L 330.963947 -141.679333 
L 320.197258 -250.341399 
L 309.430568 -218.638726 
L 298.663878 -221.427096 
L 287.897188 -203.875304 
L 277.130499 -200.764826 
L 266.363809 -223.863094 
L 255.597119 -127.15739 
L 244.830429 -182.676644 
L 234.06374 -154.836896 
L 223.29705 -222.656298 
L 212.53036 -218.677332 
L 201.76367 -166.59618 
L 190.996981 -163.876246 
L 180.230291 -165.009204 
L 169.463601 -122.150976 
L 158.696911 -185.238927 
L 147.930222 -169.995594 
L 137.163532 -197.719136 
L 126.396842 -231.341004 
L 115.630152 -179.347428 
L 104.863463 -170.962561 
L 94.096773 -208.191762 
L 83.330083 -104.126942 
L 72.563393 -94.185193 
L 61.796704 -82.792151 
L 158.696911 -234.045148 
L 147.930222 -103.721785 
L 137.163532 -170.194233 
L 126.396842 -203.34592 
L 115.630152 -177.606116 
L 104.863463 -167.968309 
L 94.096773 -207.71185 
L 83.330083 -175.587441 
L 72.563393 -118.529331 
L 61.796704 -91.455745 
L 158.696911 -222.273391 
L 147.930222 -223.873236 
L 137.163532 -100.250747 
L 126.396842 -177.257583 
L 115.630152 -226.755847 
L 104.863463 -130.117383 
L 94.096773 -110.076984 
L 83.330083 -101.886089 
L 72.563393 -123.739451 
L 61.796704 -154.235154 
z
" style="stroke: #e74c3c; stroke-opacity: 0.2"/>
    </defs>
    <g clip-path="url(#pa5f476f585)">
     <use xlink:href="#m42a8c7ace1" x="0" y="324" style="fill: #e74c3c; fill-opacity: 0.2; stroke: #e74c3c; stroke-opacity: 0.2"/>
    </g>
   </g>
   <g id="FillBetweenPolyCollection_2">
    <defs>
     <path id="m220df276c3" d="M 61.796704 -170.203893 
L 61.796704 -85.93377 
L 72.563393 -90.187819 
L 83.330083 -85.205997 
L 94.096773 -76.343051 
L 104.863463 -55.757506 
L 115.630152 -86.61222 
L 126.396842 -81.447869 
L 137.163532 -107.235564 
L 147.930222 -193.018047 
L 158.696911 -69.052906 
L 61.796704 -69.886674 
L 72.563393 -111.336182 
L 83.330083 -129.62797 
L 94.096773 -65.589742 
L 104.863463 -216.492531 
L 115.630152 -75.13764 
L 126.396842 -94.532235 
L 137.163532 -107.821762 
L 147.930222 -111.210654 
L 158.696911 -138.327492 
L 61.796704 -137.830995 
L 72.563393 -102.831091 
L 83.330083 -117.2016 
L 94.096773 -66.46094 
L 104.863463 -58.192553 
L 115.630152 -94.053501 
L 126.396842 -83.280718 
L 137.163532 -139.362707 
L 147.930222 -155.894226 
L 158.696911 -72.905074 
L 169.463601 -131.652412 
L 180.230291 -66.319059 
L 190.996981 -55.37158 
L 201.76367 -126.51264 
L 212.53036 -94.88052 
L 223.29705 -137.567382 
L 234.06374 -77.012246 
L 244.830429 -140.788174 
L 255.597119 -129.731348 
L 266.363809 -103.677267 
L 277.130499 -59.121938 
L 287.897188 -76.917428 
L 298.663878 -118.150436 
L 309.430568 -127.008092 
L 320.197258 -101.058519 
L 330.963947 -123.767657 
L 341.730637 -130.305404 
L 352.497327 -105.334388 
L 363.264017 -65.81969 
L 374.030706 -131.229049 
L 384.797396 -130.93157 
L 395.564086 -115.627786 
L 406.330776 -105.573044 
L 406.330776 -222.375288 
L 406.330776 -222.375288 
L 395.564086 -235.088953 
L 384.797396 -214.705712 
L 374.030706 -200.147252 
L 363.264017 -165.041615 
L 352.497327 -227.087292 
L 341.730637 -244.396667 
L 330.963947 -230.856313 
L 320.197258 -235.411143 
L 309.430568 -226.327531 
L 298.663878 -216.95288 
L 287.897188 -111.353847 
L 277.130499 -157.134445 
L 266.363809 -224.652224 
L 255.597119 -227.201317 
L 244.830429 -244.210703 
L 234.06374 -187.795654 
L 223.29705 -246.009009 
L 212.53036 -185.491206 
L 201.76367 -248.454297 
L 190.996981 -169.299983 
L 180.230291 -197.02491 
L 169.463601 -221.243714 
L 158.696911 -173.995119 
L 147.930222 -230.953063 
L 137.163532 -234.082521 
L 126.396842 -205.58999 
L 115.630152 -212.020414 
L 104.863463 -170.79353 
L 94.096773 -164.412062 
L 83.330083 -215.068018 
L 72.563393 -196.406437 
L 61.796704 -229.549388 
L 158.696911 -237.427614 
L 147.930222 -241.653852 
L 137.163532 -225.280707 
L 126.396842 -235.437986 
L 115.630152 -198.633874 
L 104.863463 -223.093509 
L 94.096773 -202.197963 
L 83.330083 -252.341592 
L 72.563393 -231.601445 
L 61.796704 -162.180141 
L 158.696911 -168.882651 
L 147.930222 -229.168183 
L 137.163532 -187.763502 
L 126.396842 -191.032544 
L 115.630152 -186.616636 
L 104.863463 -176.467074 
L 94.096773 -118.174773 
L 83.330083 -208.27898 
L 72.563393 -210.701008 
L 61.796704 -170.203893 
z
" style="stroke: #3498db; stroke-opacity: 0.2"/>
    </defs>
    <g clip-path="url(#pa5f476f585)">
     <use xlink:href="#m220df276c3" x="0" y="324" style="fill: #3498db; fill-opacity: 0.2; stroke: #3498db; stroke-opacity: 0.2"/>
    </g>
   </g>
   <g id="matplotlib.axis_1">
    <g id="xtick_1">
     <g id="line2d_1">
      <path d="M 51.030014 282.04 
L 51.030014 50.64 
" clip-path="url(#pa5f476f585)" style="fill: none; stroke: #b0b0b0; stroke-opacity: 0.3; stroke-width: 0.8; stroke-linecap: square"/>
     </g>
     <g id="line2d_2">
      <defs>
       <path id="m9a9ca5d009" d="M 0 0 
L 0 3.5 
" style="stroke: #000000; stroke-width: 0.8"/>
      </defs>
      <g>
       <use xlink:href="#m9a9ca5d009" x="51.030014" y="282.04" style="stroke: #000000; stroke-width: 0.8"/>
      </g>
     </g>
     <g id="text_1">
      <!-- 0k -->
      <g transform="translate(44.953451 296.638438) scale(0.1 -0.1)">
       <defs>
        <path id="DejaVuSans-30" d="M 2034 4250 
Q 1547 4250 1301 3770 
Q 1056 3291 1056 2328 
Q 1056 1369 1301 889 
Q 1547 409 2034 409 
Q 2525 409 2770 889 
Q 3016 1369 3016 2328 
Q 3016 3291 2770 3770 
Q 2525 4250 2034 4250 
z
M 2034 4750 
Q 2819 4750 3233 4129 
Q 3647 3509 3647 2328 
Q 3647 1150 3233 529 
Q 2819 -91 2034 -91 
Q 1250 -91 836 529 
Q 422 1150 422 2328 
Q 422 3509 836 4129 
Q 1250 4750 2034 4750 
z
" transform="scale(0.015625)"/>
        <path id="DejaVuSans-6b" d="M 581 4863 
L 1159 4863 
L 1159 1991 
L 2875 3500 
L 3609 3500 
L 1753 1863 
L 3688 0 
L 2938 0 
L 1159 1709 
L 1159 0 
L 581 0 
L 581 4863 
z
" transform="scale(0.015625)"/>
       </defs>
       <use xlink:href="#DejaVuSans-30"/>
       <use xlink:href="#DejaVuSans-6b" transform="translate(63.623047 0)"/>
      </g>
     </g>
    </g>
    <g id="xtick_2">
     <g id="line2d_3">
      <path d="M 122.807946 282.04 
L 122.807946 50.64 
" clip-path="url(#pa5f476f585)" style="fill: none; stroke: #b0b0b0; stroke-opacity: 0.3; stroke-width: 0.8; stroke-linecap: square"/>
     </g>
     <g id="line2d_4">
      <g>
       <use xlink:href="#m9a9ca5d009" x="122.807946" y="282.04" style="stroke: #000000; stroke-width: 0.8"/>
      </g>
     </g>
     <g id="text_2">
      <!-- 20k -->
      <g transform="translate(113.550133 296.638438) scale(0.1 -0.1)">
       <defs>
        <path id="DejaVuSans-32" d="M 1228 531 
L 3431 531 
L 3431 0 
L 469 0 
L 469 531 
Q 828 903 1448 1529 
Q 2069 2156 2228 2338 
Q 2531 2678 2651 2914 
Q 2772 3150 2772 3378 
Q 2772 3750 2511 3984 
Q 2250 4219 1831 4219 
Q 1534 4219 1204 4116 
Q 875 4013 500 3803 
L 500 4441 
Q 881 4594 1212 4672 
Q 1544 4750 1819 4750 
Q 2544 4750 2975 4387 
Q 3406 4025 3406 3419 
Q 3406 3131 3298 2873 
Q 3191 2616 2906 2266 
Q 2828 2175 2409 1742 
Q 1991 1309 1228 531 
z
" transform="scale(0.015625)"/>
       </defs>
       <use xlink:href="#DejaVuSans-32"/>
       <use xlink:href="#DejaVuSans-30" transform="translate(63.623047 0)"/>
       <use xlink:href="#DejaVuSans-6b" transform="translate(127.246094 0)"/>
      </g>
     </g>
    </g>
    <g id="xtick_3">
     <g id="line2d_5">
      <path d="M 194.585877 282.04 
L 194.585877 50.64 
" clip-path="url(#pa5f476f585)" style="fill: none; stroke: #b0b0b0; stroke-opacity: 0.3; stroke-width: 0.8; stroke-linecap: square"/>
     </g>
     <g id="line2d_6">
      <g>
       <use xlink:href="#m9a9ca5d009" x="194.585877" y="282.04" style="stroke: #000000; stroke-width: 0.8"/>
      </g>
     </g>
     <g id="text_3">
      <!-- 40k -->
      <g transform="translate(185.328065 296.638438) scale(0.1 -0.1)">
       <defs>
        <path id="DejaVuSans-34" d="M 2419 4116 
L 825 1625 
L 2419 1625 
L 2419 4116 
z
M 2253 4666 
L 3047 4666 
L 3047 1625 
L 3713 1625 
L 3713 1100 
L 3047 1100 
L 3047 0 
L 2419 0 
L 2419 1100 
L 313 1100 
L 313 1709 
L 2253 4666 
z
" transform="scale(0.015625)"/>
       </defs>
       <use xlink:href="#DejaVuSans-34"/>
       <use xlink:href="#DejaVuSans-30" transform="translate(63.623047 0)"/>
       <use xlink:href="#DejaVuSans-6b" transform="translate(127.246094 0)"/>
      </g>
     </g>
    </g>
    <g id="xtick_4">
     <g id="line2d_7">
      <path d="M 266.363809 282.04 
L 266.363809 50.64 
" clip-path="url(#pa5f476f585)" style="fill: none; stroke: #b0b0b0; stroke-opacity: 0.3; stroke-width: 0.8; stroke-linecap: square"/>
     </g>
     <g id="line2d_8">
      <g>
       <use xlink:href="#m9a9ca5d009" x="266.363809" y="282.04" style="stroke: #000000; stroke-width: 0.8"/>
      </g>
     </g>
     <g id="text_4">
      <!-- 60k -->
      <g transform="translate(257.105996 296.638438) scale(0.1 -0.1)">
       <defs>
        <path id="DejaVuSans-36" d="M 2113 2584 
Q 1688 2584 1439 2293 
Q 1191 2003 1191 1497 
Q 1191 994 1439 701 
Q 1688 409 2113 409 
Q 2538 409 2786 701 
Q 3034 994 3034 1497 
Q 3034 2003 2786 2293 
Q 2538 2584 2113 2584 
z
M 3366 4563 
L 3366 3988 
Q 3128 4100 2886 4159 
Q 2644 4219 2406 4219 
Q 1781 4219 1451 3797 
Q 1122 3375 1075 2522 
Q 1259 2794 1537 2939 
Q 1816 3084 2150 3084 
Q 2853 3084 3261 2657 
Q 3669 2231 3669 1497 
Q 3669 778 3244 343 
Q 2819 -91 2113 -91 
Q 1303 -91 875 529 
Q 447 1150 447 2328 
Q 447 3434 972 4092 
Q 1497 4750 2381 4750 
Q 2619 4750 2861 4703 
Q 3103 4656 3366 4563 
z
" transform="scale(0.015625)"/>
       </defs>
       <use xlink:href="#DejaVuSans-36"/>
       <use xlink:href="#DejaVuSans-30" transform="translate(63.623047 0)"/>
       <use xlink:href="#DejaVuSans-6b" transform="translate(127.246094 0)"/>
      </g>
     </g>
    </g>
    <g id="xtick_5">
     <g id="line2d_9">
      <path d="M 338.141741 282.04 
L 338.141741 50.64 
" clip-path="url(#pa5f476f585)" style="fill: none; stroke: #b0b0b0; stroke-opacity: 0.3; stroke-width: 0.8; stroke-linecap: square"/>
     </g>
     <g id="line2d_10">
      <g>
       <use xlink:href="#m9a9ca5d009" x="338.141741" y="282.04" style="stroke: #000000; stroke-width: 0.8"/>
      </g>
     </g>
     <g id="text_5">
      <!-- 80k -->
      <g transform="translate(328.883928 296.638438) scale(0.1 -0.1)">
       <defs>
        <path id="DejaVuSans-38" d="M 2034 2216 
Q 1584 2216 1326 1975 
Q 1069 1734 1069 1313 
Q 1069 891 1326 650 
Q 1584 409 2034 409 
Q 2484 409 2743 651 
Q 3003 894 3003 1313 
Q 3003 1734 2745 1975 
Q 2488 2216 2034 2216 
z
M 1403 2484 
Q 997 2584 770 2862 
Q 544 3141 544 3541 
Q 544 4100 942 4425 
Q 1341 4750 2034 4750 
Q 2731 4750 3128 4425 
Q 3525 4100 3525 3541 
Q 3525 3141 3298 2862 
Q 3072 2584 2669 2484 
Q 3125 2378 3379 2068 
Q 3634 1759 3634 1313 
Q 3634 634 3220 271 
Q 2806 -91 2034 -91 
Q 1263 -91 848 271 
Q 434 634 434 1313 
Q 434 1759 690 2068 
Q 947 2378 1403 2484 
z
M 1172 3481 
Q 1172 3119 1398 2916 
Q 1625 2713 2034 2713 
Q 2441 2713 2670 2916 
Q 2900 3119 2900 3481 
Q 2900 3844 2670 4047 
Q 2441 4250 2034 4250 
Q 1625 4250 1398 4047 
Q 1172 3844 1172 3481 
z
" transform="scale(0.015625)"/>
       </defs>
       <use xlink:href="#DejaVuSans-38"/>
       <use xlink:href="#DejaVuSans-30" transform="translate(63.623047 0)"/>
       <use xlink:href="#DejaVuSans-6b" transform="translate(127.246094 0)"/>
      </g>
     </g>
    </g>
    <g id="xtick_6">
     <g id="line2d_11">
      <path d="M 409.919672 282.04 
L 409.919672 50.64 
" clip-path="url(#pa5f476f585)" style="fill: none; stroke: #b0b0b0; stroke-opacity: 0.3; stroke-width: 0.8; stroke-linecap: square"/>
     </g>
     <g id="line2d_12">
      <g>
       <use xlink:href="#m9a9ca5d009" x="409.919672" y="282.04" style="stroke: #000000; stroke-width: 0.8"/>
      </g>
     </g>
     <g id="text_6">
      <!-- 100k -->
      <g transform="translate(397.48061 296.638438) scale(0.1 -0.1)">
       <defs>
        <path id="DejaVuSans-31" d="M 794 531 
L 1825 531 
L 1825 4091 
L 703 3866 
L 703 4441 
L 1819 4666 
L 2450 4666 
L 2450 531 
L 3481 531 
L 3481 0 
L 794 0 
L 794 531 
z
" transform="scale(0.015625)"/>
       </defs>
       <use xlink:href="#DejaVuSans-31"/>
       <use xlink:href="#DejaVuSans-30" transform="translate(63.623047 0)"/>
       <use xlink:href="#DejaVuSans-30" transform="translate(127.246094 0)"/>
       <use xlink:href="#DejaVuSans-6b" transform="translate(190.869141 0)"/>
      </g>
     </g>
    </g>
    <g id="text_7">
     <!-- Training timesteps -->
     <g transform="translate(188.03249 310.316563) scale(0.1 -0.1)">
      <defs>
       <path id="DejaVuSans-54" d="M -19 4666 
L 3928 4666 
L 3928 4134 
L 2272 4134 
L 2272 0 
L 1638 0 
L 1638 4134 
L -19 4134 
L -19 4666 
z
" transform="scale(0.015625)"/>
       <path id="DejaVuSans-72" d="M 2631 2963 
Q 2534 3019 2420 3045 
Q 2306 3072 2169 3072 
Q 1681 3072 1420 2755 
Q 1159 2438 1159 1844 
L 1159 0 
L 581 0 
L 581 3500 
L 1159 3500 
L 1159 2956 
Q 1341 3275 1631 3429 
Q 1922 3584 2338 3584 
Q 2397 3584 2469 3576 
Q 2541 3569 2628 3553 
L 2631 2963 
z
" transform="scale(0.015625)"/>
       <path id="DejaVuSans-61" d="M 2194 1759 
Q 1497 1759 1228 1600 
Q 959 1441 959 1056 
Q 959 750 1161 570 
Q 1363 391 1709 391 
Q 2188 391 2477 730 
Q 2766 1069 2766 1631 
L 2766 1759 
L 2194 1759 
z
M 3341 1997 
L 3341 0 
L 2766 0 
L 2766 531 
Q 2569 213 2275 61 
Q 1981 -91 1556 -91 
Q 1019 -91 701 211 
Q 384 513 384 1019 
Q 384 1609 779 1909 
Q 1175 2209 1959 2209 
L 2766 2209 
L 2766 2266 
Q 2766 2663 2505 2880 
Q 2244 3097 1772 3097 
Q 1472 3097 1187 3025 
Q 903 2953 641 2809 
L 641 3341 
Q 956 3463 1253 3523 
Q 1550 3584 1831 3584 
Q 2591 3584 2966 3190 
Q 3341 2797 3341 1997 
z
" transform="scale(0.015625)"/>
       <path id="DejaVuSans-69" d="M 603 3500 
L 1178 3500 
L 1178 0 
L 603 0 
L 603 3500 
z
M 603 4863 
L 1178 4863 
L 1178 4134 
L 603 4134 
L 603 4863 
z
" transform="scale(0.015625)"/>
       <path id="DejaVuSans-6e" d="M 3513 2113 
L 3513 0 
L 2938 0 
L 2938 2094 
Q 2938 2591 2744 2837 
Q 2550 3084 2163 3084 
Q 1697 3084 1428 2787 
Q 1159 2491 1159 1978 
L 1159 0 
L 581 0 
L 581 3500 
L 1159 3500 
L 1159 2956 
Q 1366 3272 1645 3428 
Q 1925 3584 2291 3584 
Q 2894 3584 3203 3211 
Q 3513 2838 3513 2113 
z
" transform="scale(0.015625)"/>
       <path id="DejaVuSans-67" d="M 2906 1791 
Q 2906 2416 2648 2759 
Q 2391 3103 1925 3103 
Q 1463 3103 1205 2759 
Q 947 2416 947 1791 
Q 947 1169 1205 825 
Q 1463 481 1925 481 
Q 2391 481 2648 825 
Q 2906 1169 2906 1791 
z
M 3481 434 
Q 3481 -459 3084 -895 
Q 2688 -1331 1869 -1331 
Q 1566 -1331 1297 -1286 
Q 1028 -1241 775 -1147 
L 775 -588 
Q 1028 -725 1275 -790 
Q 1522 -856 1778 -856 
Q 2344 -856 2625 -561 
Q 2906 -266 2906 331 
L 2906 616 
Q 2728 306 2450 153 
Q 2172 0 1784 0 
Q 1141 0 747 490 
Q 353 981 353 1791 
Q 353 2603 747 3093 
Q 1141 3584 1784 3584 
Q 2172 3584 2450 3431 
Q 2728 3278 2906 2969 
L 2906 3500 
L 3481 3500 
L 3481 434 
z
" transform="scale(0.015625)"/>
       <path id="DejaVuSans-20" transform="scale(0.015625)"/>
       <path id="DejaVuSans-74" d="M 1172 4494 
L 1172 3500 
L 2356 3500 
L 2356 3053 
L 1172 3053 
L 1172 1153 
Q 1172 725 1289 603 
Q 1406 481 1766 481 
L 2356 481 
L 2356 0 
L 1766 0 
Q 1100 0 847 248 
Q 594 497 594 1153 
L 594 3053 
L 172 3053 
L 172 3500 
L 594 3500 
L 594 4494 
L 1172 4494 
z
" transform="scale(0.015625)"/>
       <path id="DejaVuSans-6d" d="M 3328 2828 
Q 3544 3216 3844 3400 
Q 4144 3584 4550 3584 
Q 5097 3584 5394 3201 
Q 5691 2819 5691 2113 
L 5691 0 
L 5113 0 
L 5113 2094 
Q 5113 2597 4934 2840 
Q 4756 3084 4391 3084 
Q 3944 3084 3684 2787 
Q 3425 2491 3425 1978 
L 3425 0 
L 2847 0 
L 2847 2094 
Q 2847 2600 2669 2842 
Q 2491 3084 2119 3084 
Q 1678 3084 1418 2786 
Q 1159 2488 1159 1978 
L 1159 0 
L 581 0 
L 581 3500 
L 1159 3500 
L 1159 2956 
Q 1356 3278 1631 3431 
Q 1906 3584 2284 3584 
Q 2666 3584 2933 3390 
Q 3200 3197 3328 2828 
z
" transform="scale(0.015625)"/>
       <path id="DejaVuSans-65" d="M 3597 1894 
L 3597 1613 
L 953 1613 
Q 991 1019 1311 708 
Q 1631 397 2203 397 
Q 2534 397 2845 478 
Q 3156 559 3463 722 
L 3463 178 
Q 3153 47 2828 -22 
Q 2503 -91 2169 -91 
Q 1331 -91 842 396 
Q 353 884 353 1716 
Q 353 2575 817 3079 
Q 1281 3584 2069 3584 
Q 2775 3584 3186 3129 
Q 3597 2675 3597 1894 
z
M 3022 2063 
Q 3016 2534 2758 2815 
Q 2500 3097 2075 3097 
Q 1594 3097 1305 2825 
Q 1016 2553 972 2059 
L 3022 2063 
z
" transform="scale(0.015625)"/>
       <path id="DejaVuSans-73" d="M 2834 3397 
L 2834 2853 
Q 2591 2978 2328 3040 
Q 2066 3103 1784 3103 
Q 1356 3103 1142 2972 
Q 928 2841 928 2578 
Q 928 2378 1081 2264 
Q 1234 2150 1697 2047 
L 1894 2003 
Q 2506 1872 2764 1633 
Q 3022 1394 3022 966 
Q 3022 478 2636 193 
Q 2250 -91 1575 -91 
Q 1294 -91 989 -36 
Q 684 19 347 128 
L 347 722 
Q 666 556 975 473 
Q 1284 391 1588 391 
Q 1994 391 2212 530 
Q 2431 669 2431 922 
Q 2431 1156 2273 1281 
Q 2116 1406 1581 1522 
L 1381 1569 
Q 847 1681 609 1914 
Q 372 2147 372 2553 
Q 372 3047 722 3315 
Q 1072 3584 1716 3584 
Q 2034 3584 2315 3537 
Q 2597 3491 2834 3397 
z
" transform="scale(0.015625)"/>
       <path id="DejaVuSans-70" d="M 1159 525 
L 1159 -1331 
L 581 -1331 
L 581 3500 
L 1159 3500 
L 1159 2969 
Q 1341 3281 1617 3432 
Q 1894 3584 2278 3584 
Q 2916 3584 3314 3078 
Q 3713 2572 3713 1747 
Q 3713 922 3314 415 
Q 2916 -91 2278 -91 
Q 1894 -91 1617 61 
Q 1341 213 1159 525 
z
M 3116 1747 
Q 3116 2381 2855 2742 
Q 2594 3103 2138 3103 
Q 1681 3103 1420 2742 
Q 1159 2381 1159 1747 
Q 1159 1113 1420 752 
Q 1681 391 2138 391 
Q 2594 391 2855 752 
Q 3116 1113 3116 1747 
z
" transform="scale(0.015625)"/>
      </defs>
      <use xlink:href="#DejaVuSans-54"/>
      <use xlink:href="#DejaVuSans-72" transform="translate(46.333984 0)"/>
      <use xlink:href="#DejaVuSans-61" transform="translate(87.447266 0)"/>
      <use xlink:href="#DejaVuSans-69" transform="translate(148.726562 0)"/>
      <use xlink:href="#DejaVuSans-6e" transform="translate(176.509766 0)"/>
      <use xlink:href="#DejaVuSans-69" transform="translate(239.888672 0)"/>
      <use xlink:href="#DejaVuSans-6e" transform="translate(267.671875 0)"/>
      <use xlink:href="#DejaVuSans-67" transform="translate(331.050781 0)"/>
      <use xlink:href="#DejaVuSans-20" transform="translate(394.527344 0)"/>
      <use xlink:href="#DejaVuSans-74" transform="translate(426.314453 0)"/>
      <use xlink:href="#DejaVuSans-69" transform="translate(465.523438 0)"/>
      <use xlink:href="#DejaVuSans-6d" transform="translate(493.306641 0)"/>
      <use xlink:href="#DejaVuSans-65" transform="translate(590.71875 0)"/>
      <use xlink:href="#DejaVuSans-73" transform="translate(652.242188 0)"/>
      <use xlink:href="#DejaVuSans-74" transform="translate(704.341797 0)"/>
      <use xlink:href="#DejaVuSans-65" transform="translate(743.550781 0)"/>
      <use xlink:href="#DejaVuSans-70" transform="translate(805.074219 0)"/>
      <use xlink:href="#DejaVuSans-73" transform="translate(868.550781 0)"/>
     </g>
    </g>
   </g>
   <g id="matplotlib.axis_2">
    <g id="ytick_1">
     <g id="line2d_13">
      <path d="M 44.57 263.905997 
L 423.557479 263.905997 
" clip-path="url(#pa5f476f585)" style="fill: none; stroke: #b0b0b0; stroke-opacity: 0.3; stroke-width: 0.8; stroke-linecap: square"/>
     </g>
     <g id="line2d_14">
      <defs>
       <path id="m1ad0d0b55f" d="M 0 0 
L -3.5 0 
" style="stroke: #000000; stroke-width: 0.8"/>
      </defs>
      <g>
       <use xlink:href="#m1ad0d0b55f" x="44.57" y="263.905997" style="stroke: #000000; stroke-width: 0.8"/>
      </g>
     </g>
     <g id="text_8">
      <!-- 0 -->
      <g transform="translate(31.2075 267.705216) scale(0.1 -0.1)">
       <use xlink:href="#DejaVuSans-30"/>
      </g>
     </g>
    </g>
    <g id="ytick_2">
     <g id="line2d_15">
      <path d="M 44.57 229.382962 
L 423.557479 229.382962 
" clip-path="url(#pa5f476f585)" style="fill: none; stroke: #b0b0b0; stroke-opacity: 0.3; stroke-width: 0.8; stroke-linecap: square"/>
     </g>
     <g id="line2d_16">
      <g>
       <use xlink:href="#m1ad0d0b55f" x="44.57" y="229.382962" style="stroke: #000000; stroke-width: 0.8"/>
      </g>
     </g>
     <g id="text_9">
      <!-- 10 -->
      <g transform="translate(24.845 233.182181) scale(0.1 -0.1)">
       <use xlink:href="#DejaVuSans-31"/>
       <use xlink:href="#DejaVuSans-30" transform="translate(63.623047 0)"/>
      </g>
     </g>
    </g>
    <g id="ytick_3">
     <g id="line2d_17">
      <path d="M 44.57 194.859927 
L 423.557479 194.859927 
" clip-path="url(#pa5f476f585)" style="fill: none; stroke: #b0b0b0; stroke-opacity: 0.3; stroke-width: 0.8; stroke-linecap: square"/>
     </g>
     <g id="line2d_18">
      <g>
       <use xlink:href="#m1ad0d0b55f" x="44.57" y="194.859927" style="stroke: #000000; stroke-width: 0.8"/>
      </g>
     </g>
     <g id="text_10">
      <!-- 20 -->
      <g transform="translate(24.845 198.659146) scale(0.1 -0.1)">
       <use xlink:href="#DejaVuSans-32"/>
       <use xlink:href="#DejaVuSans-30" transform="translate(63.623047 0)"/>
      </g>
     </g>
    </g>
    <g id="ytick_4">
     <g id="line2d_19">
      <path d="M 44.57 160.336892 
L 423.557479 160.336892 
" clip-path="url(#pa5f476f585)" style="fill: none; stroke: #b0b0b0; stroke-opacity: 0.3; stroke-width: 0.8; stroke-linecap: square"/>
     </g>
     <g id="line2d_20">
      <g>
       <use xlink:href="#m1ad0d0b55f" x="44.57" y="160.336892" style="stroke: #000000; stroke-width: 0.8"/>
      </g>
     </g>
     <g id="text_11">
      <!-- 30 -->
      <g transform="translate(24.845 164.136111) scale(0.1 -0.1)">
       <defs>
        <path id="DejaVuSans-33" d="M 2597 2516 
Q 3050 2419 3304 2112 
Q 3559 1806 3559 1356 
Q 3559 666 3084 287 
Q 2609 -91 1734 -91 
Q 1441 -91 1130 -33 
Q 819 25 488 141 
L 488 750 
Q 750 597 1062 519 
Q 1375 441 1716 441 
Q 2309 441 2620 675 
Q 2931 909 2931 1356 
Q 2931 1769 2642 2001 
Q 2353 2234 1838 2234 
L 1294 2234 
L 1294 2753 
L 1863 2753 
Q 2328 2753 2575 2939 
Q 2822 3125 2822 3475 
Q 2822 3834 2567 4026 
Q 2313 4219 1838 4219 
Q 1578 4219 1281 4162 
Q 984 4106 628 3988 
L 628 4550 
Q 988 4650 1302 4700 
Q 1616 4750 1894 4750 
Q 2613 4750 3031 4423 
Q 3450 4097 3450 3541 
Q 3450 3153 3228 2886 
Q 3006 2619 2597 2516 
z
" transform="scale(0.015625)"/>
       </defs>
       <use xlink:href="#DejaVuSans-33"/>
       <use xlink:href="#DejaVuSans-30" transform="translate(63.623047 0)"/>
      </g>
     </g>
    </g>
    <g id="ytick_5">
     <g id="line2d_21">
      <path d="M 44.57 125.813857 
L 423.557479 125.813857 
" clip-path="url(#pa5f476f585)" style="fill: none; stroke: #b0b0b0; stroke-opacity: 0.3; stroke-width: 0.8; stroke-linecap: square"/>
     </g>
     <g id="line2d_22">
      <g>
       <use xlink:href="#m1ad0d0b55f" x="44.57" y="125.813857" style="stroke: #000000; stroke-width: 0.8"/>
      </g>
     </g>
     <g id="text_12">
      <!-- 40 -->
      <g transform="translate(24.845 129.613076) scale(0.1 -0.1)">
       <use xlink:href="#DejaVuSans-34"/>
       <use xlink:href="#DejaVuSans-30" transform="translate(63.623047 0)"/>
      </g>
     </g>
    </g>
    <g id="ytick_6">
     <g id="line2d_23">
      <path d="M 44.57 91.290823 
L 423.557479 91.290823 
" clip-path="url(#pa5f476f585)" style="fill: none; stroke: #b0b0b0; stroke-opacity: 0.3; stroke-width: 0.8; stroke-linecap: square"/>
     </g>
     <g id="line2d_24">
      <g>
       <use xlink:href="#m1ad0d0b55f" x="44.57" y="91.290823" style="stroke: #000000; stroke-width: 0.8"/>
      </g>
     </g>
     <g id="text_13">
      <!-- 50 -->
      <g transform="translate(24.845 95.090041) scale(0.1 -0.1)">
       <defs>
        <path id="DejaVuSans-35" d="M 691 4666 
L 3169 4666 
L 3169 4134 
L 1269 4134 
L 1269 2991 
Q 1406 3038 1543 3061 
Q 1681 3084 1819 3084 
Q 2600 3084 3056 2656 
Q 3513 2228 3513 1497 
Q 3513 744 3044 326 
Q 2575 -91 1722 -91 
Q 1428 -91 1123 -41 
Q 819 9 494 109 
L 494 744 
Q 775 591 1075 516 
Q 1375 441 1709 441 
Q 2250 441 2565 725 
Q 2881 1009 2881 1497 
Q 2881 1984 2565 2268 
Q 2250 2553 1709 2553 
Q 1456 2553 1204 2497 
Q 953 2441 691 2322 
L 691 4666 
z
" transform="scale(0.015625)"/>
       </defs>
       <use xlink:href="#DejaVuSans-35"/>
       <use xlink:href="#DejaVuSans-30" transform="translate(63.623047 0)"/>
      </g>
     </g>
    </g>
    <g id="ytick_7">
     <g id="line2d_25">
      <path d="M 44.57 56.767788 
L 423.557479 56.767788 
" clip-path="url(#pa5f476f585)" style="fill: none; stroke: #b0b0b0; stroke-opacity: 0.3; stroke-width: 0.8; stroke-linecap: square"/>
     </g>
     <g id="line2d_26">
      <g>
       <use xlink:href="#m1ad0d0b55f" x="44.57" y="56.767788" style="stroke: #000000; stroke-width: 0.8"/>
      </g>
     </g>
     <g id="text_14">
      <!-- 60 -->
      <g transform="translate(24.845 60.567006) scale(0.1 -0.1)">
       <use xlink:href="#DejaVuSans-36"/>
       <use xlink:href="#DejaVuSans-30" transform="translate(63.623047 0)"/>
      </g>
     </g>
    </g>
    <g id="text_15">
     <!-- Mean episode reward -->
     <g transform="translate(18.765312 220.011094) rotate(-90) scale(0.1 -0.1)">
      <defs>
       <path id="DejaVuSans-4d" d="M 628 4666 
L 1569 4666 
L 2759 1491 
L 3956 4666 
L 4897 4666 
L 4897 0 
L 4281 0 
L 4281 4097 
L 3078 897 
L 2444 897 
L 1241 4097 
L 1241 0 
L 628 0 
L 628 4666 
z
" transform="scale(0.015625)"/>
       <path id="DejaVuSans-6f" d="M 1959 3097 
Q 1497 3097 1228 2736 
Q 959 2375 959 1747 
Q 959 1119 1226 758 
Q 1494 397 1959 397 
Q 2419 397 2687 759 
Q 2956 1122 2956 1747 
Q 2956 2369 2687 2733 
Q 2419 3097 1959 3097 
z
M 1959 3584 
Q 2709 3584 3137 3096 
Q 3566 2609 3566 1747 
Q 3566 888 3137 398 
Q 2709 -91 1959 -91 
Q 1206 -91 779 398 
Q 353 888 353 1747 
Q 353 2609 779 3096 
Q 1206 3584 1959 3584 
z
" transform="scale(0.015625)"/>
       <path id="DejaVuSans-64" d="M 2906 2969 
L 2906 4863 
L 3481 4863 
L 3481 0 
L 2906 0 
L 2906 525 
Q 2725 213 2448 61 
Q 2172 -91 1784 -91 
Q 1150 -91 751 415 
Q 353 922 353 1747 
Q 353 2572 751 3078 
Q 1150 3584 1784 3584 
Q 2172 3584 2448 3432 
Q 2725 3281 2906 2969 
z
M 947 1747 
Q 947 1113 1208 752 
Q 1469 391 1925 391 
Q 2381 391 2643 752 
Q 2906 1113 2906 1747 
Q 2906 2381 2643 2742 
Q 2381 3103 1925 3103 
Q 1469 3103 1208 2742 
Q 947 2381 947 1747 
z
" transform="scale(0.015625)"/>
       <path id="DejaVuSans-77" d="M 269 3500 
L 844 3500 
L 1563 769 
L 2278 3500 
L 2956 3500 
L 3675 769 
L 4391 3500 
L 4966 3500 
L 4050 0 
L 3372 0 
L 2619 2869 
L 1863 0 
L 1184 0 
L 269 3500 
z
" transform="scale(0.015625)"/>
      </defs>
      <use xlink:href="#DejaVuSans-4d"/>
      <use xlink:href="#DejaVuSans-65" transform="translate(86.279297 0)"/>
      <use xlink:href="#DejaVuSans-61" transform="translate(147.802734 0)"/>
      <use xlink:href="#DejaVuSans-6e" transform="translate(209.082031 0)"/>
      <use xlink:href="#DejaVuSans-20" transform="translate(272.460938 0)"/>
      <use xlink:href="#DejaVuSans-65" transform="translate(304.248047 0)"/>
      <use xlink:href="#DejaVuSans-70" transform="translate(365.771484 0)"/>
      <use xlink:href="#DejaVuSans-69" transform="translate(429.248047 0)"/>
      <use xlink:href="#DejaVuSans-73" transform="translate(457.03125 0)"/>
      <use xlink:href="#DejaVuSans-6f" transform="translate(509.130859 0)"/>
      <use xlink:href="#DejaVuSans-64" transform="translate(570.3125 0)"/>
      <use xlink:href="#DejaVuSans-65" transform="translate(633.789062 0)"/>
      <use xlink:href="#DejaVuSans-20" transform="translate(695.3125 0)"/>
      <use xlink:href="#DejaVuSans-72" transform="translate(727.099609 0)"/>
      <use xlink:href="#DejaVuSans-65" transform="translate(765.962891 0)"/>
      <use xlink:href="#DejaVuSans-77" transform="translate(827.486328 0)"/>
      <use xlink:href="#DejaVuSans-61" transform="translate(909.273438 0)"/>
      <use xlink:href="#DejaVuSans-72" transform="translate(970.552734 0)"/>
      <use xlink:href="#DejaVuSans-64" transform="translate(1009.916016 0)"/>
     </g>
    </g>
   </g>
   <g id="line2d_27">
    <path d="M 61.796704 200.674496 
L 72.563393 227.483495 
L 83.330083 237.885543 
L 94.096773 233.627427 
L 104.863463 211.023793 
L 115.630152 156.681025 
L 126.396842 193.012162 
L 137.163532 234.895844 
L 147.930222 103.955625 
L 158.696911 149.743958 
L 61.796704 241.733195 
L 72.563393 219.456466 
L 83.330083 205.44736 
L 94.096773 179.190514 
L 104.863463 202.185901 
L 115.630152 206.786688 
L 126.396842 187.44477 
L 137.163532 208.120281 
L 147.930222 237.203396 
L 158.696911 160.379924 
L 61.796704 247.525251 
L 72.563393 236.311834 
L 83.330083 232.419229 
L 94.096773 183.395141 
L 104.863463 212.279628 
L 115.630152 200.283538 
L 126.396842 160.694484 
L 137.163532 184.779344 
L 147.930222 200.39296 
L 158.696911 178.714215 
L 169.463601 228.038352 
L 180.230291 213.631578 
L 190.996981 205.140612 
L 201.76367 198.016553 
L 212.53036 167.781869 
L 223.29705 173.49717 
L 234.06374 208.226477 
L 244.830429 193.325368 
L 255.597119 214.748104 
L 266.363809 173.24095 
L 277.130499 182.063648 
L 287.897188 168.135998 
L 298.663878 175.524673 
L 309.430568 151.190886 
L 320.197258 85.36398 
L 330.963947 214.236057 
L 341.730637 114.570898 
L 352.497327 140.270869 
L 363.264017 122.923579 
L 374.030706 162.067651 
L 384.797396 172.587351 
L 395.564086 185.981571 
L 406.330776 154.724928 
" clip-path="url(#pa5f476f585)" style="fill: none; stroke: #e74c3c; stroke-width: 2; stroke-linecap: square"/>
   </g>
   <g id="line2d_28">
    <path d="M 61.796704 195.931168 
L 72.563393 173.555587 
L 83.330083 177.257512 
L 94.096773 226.741088 
L 104.863463 207.88771 
L 115.630152 187.385572 
L 126.396842 187.759793 
L 137.163532 176.500467 
L 147.930222 112.906885 
L 158.696911 205.032222 
L 61.796704 207.966592 
L 72.563393 152.531187 
L 83.330083 133.015219 
L 94.096773 190.106148 
L 104.863463 104.20698 
L 115.630152 187.114243 
L 126.396842 159.014889 
L 137.163532 157.448766 
L 147.930222 147.567747 
L 158.696911 136.122447 
L 61.796704 140.309808 
L 72.563393 174.381236 
L 83.330083 157.865191 
L 94.096773 208.563499 
L 104.863463 209.506958 
L 115.630152 170.963043 
L 126.396842 179.564646 
L 137.163532 137.277386 
L 147.930222 130.576356 
L 158.696911 200.549904 
L 169.463601 147.551937 
L 180.230291 192.328016 
L 190.996981 211.664218 
L 201.76367 136.516531 
L 212.53036 183.814137 
L 223.29705 132.211805 
L 234.06374 191.59605 
L 244.830429 131.500562 
L 255.597119 145.533667 
L 266.363809 159.835255 
L 277.130499 215.871809 
L 287.897188 229.864362 
L 298.663878 156.448342 
L 309.430568 147.332189 
L 320.197258 155.765169 
L 330.963947 146.688015 
L 341.730637 136.648964 
L 352.497327 157.78916 
L 363.264017 208.569347 
L 374.030706 158.311849 
L 384.797396 151.181359 
L 395.564086 148.64163 
L 406.330776 160.025834 
" clip-path="url(#pa5f476f585)" style="fill: none; stroke: #3498db; stroke-width: 2; stroke-linecap: square"/>
   </g>
   <g id="patch_3">
    <path d="M 44.57 282.04 
L 44.57 50.64 
" style="fill: none; stroke: #000000; stroke-width: 0.8; stroke-linejoin: miter; stroke-linecap: square"/>
   </g>
   <g id="patch_4">
    <path d="M 423.557479 282.04 
L 423.557479 50.64 
" style="fill: none; stroke: #000000; stroke-width: 0.8; stroke-linejoin: miter; stroke-linecap: square"/>
   </g>
   <g id="patch_5">
    <path d="M 44.57 282.04 
L 423.557479 282.04 
" style="fill: none; stroke: #000000; stroke-width: 0.8; stroke-linejoin: miter; stroke-linecap: square"/>
   </g>
   <g id="patch_6">
    <path d="M 44.57 50.64 
L 423.557479 50.64 
" style="fill: none; stroke: #000000; stroke-width: 0.8; stroke-linejoin: miter; stroke-linecap: square"/>
   </g>
   <g id="text_16">
    <!-- Reward during training -->
    <g transform="translate(165.304677 44.64) scale(0.12 -0.12)">
     <defs>
      <path id="DejaVuSans-52" d="M 2841 2188 
Q 3044 2119 3236 1894 
Q 3428 1669 3622 1275 
L 4263 0 
L 3584 0 
L 2988 1197 
Q 2756 1666 2539 1819 
Q 2322 1972 1947 1972 
L 1259 1972 
L 1259 0 
L 628 0 
L 628 4666 
L 2053 4666 
Q 2853 4666 3247 4331 
Q 3641 3997 3641 3322 
Q 3641 2881 3436 2590 
Q 3231 2300 2841 2188 
z
M 1259 4147 
L 1259 2491 
L 2053 2491 
Q 2509 2491 2742 2702 
Q 2975 2913 2975 3322 
Q 2975 3731 2742 3939 
Q 2509 4147 2053 4147 
L 1259 4147 
z
" transform="scale(0.015625)"/>
      <path id="DejaVuSans-75" d="M 544 1381 
L 544 3500 
L 1119 3500 
L 1119 1403 
Q 1119 906 1312 657 
Q 1506 409 1894 409 
Q 2359 409 2629 706 
Q 2900 1003 2900 1516 
L 2900 3500 
L 3475 3500 
L 3475 0 
L 2900 0 
L 2900 538 
Q 2691 219 2414 64 
Q 2138 -91 1772 -91 
Q 1169 -91 856 284 
Q 544 659 544 1381 
z
M 1991 3584 
L 1991 3584 
z
" transform="scale(0.015625)"/>
     </defs>
     <use xlink:href="#DejaVuSans-52"/>
     <use xlink:href="#DejaVuSans-65" transform="translate(64.982422 0)"/>
     <use xlink:href="#DejaVuSans-77" transform="translate(126.505859 0)"/>
     <use xlink:href="#DejaVuSans-61" transform="translate(208.292969 0)"/>
     <use xlink:href="#DejaVuSans-72" transform="translate(269.572266 0)"/>
     <use xlink:href="#DejaVuSans-64" transform="translate(308.935547 0)"/>
     <use xlink:href="#DejaVuSans-20" transform="translate(372.412109 0)"/>
     <use xlink:href="#DejaVuSans-64" transform="translate(404.199219 0)"/>
     <use xlink:href="#DejaVuSans-75" transform="translate(467.675781 0)"/>
     <use xlink:href="#DejaVuSans-72" transform="translate(531.054688 0)"/>
     <use xlink:href="#DejaVuSans-69" transform="translate(572.167969 0)"/>
     <use xlink:href="#DejaVuSans-6e" transform="translate(599.951172 0)"/>
     <use xlink:href="#DejaVuSans-67" transform="translate(663.330078 0)"/>
     <use xlink:href="#DejaVuSans-20" transform="translate(726.806641 0)"/>
     <use xlink:href="#DejaVuSans-74" transform="translate(758.59375 0)"/>
     <use xlink:href="#DejaVuSans-72" transform="translate(797.802734 0)"/>
     <use xlink:href="#DejaVuSans-61" transform="translate(838.916016 0)"/>
     <use xlink:href="#DejaVuSans-69" transform="translate(900.195312 0)"/>
     <use xlink:href="#DejaVuSans-6e" transform="translate(927.978516 0)"/>
     <use xlink:href="#DejaVuSans-69" transform="translate(991.357422 0)"/>
     <use xlink:href="#DejaVuSans-6e" transform="translate(1019.140625 0)"/>
     <use xlink:href="#DejaVuSans-67" transform="translate(1082.519531 0)"/>
    </g>
   </g>
   <g id="legend_1">
    <g id="patch_7">
     <path d="M 50.87 84.260625 
L 245.251719 84.260625 
Q 247.051719 84.260625 247.051719 82.460625 
L 247.051719 56.94 
Q 247.051719 55.14 245.251719 55.14 
L 50.87 55.14 
Q 49.07 55.14 49.07 56.94 
L 49.07 82.460625 
Q 49.07 84.260625 50.87 84.260625 
z
" style="fill: #ffffff; opacity: 0.8; stroke: #cccccc; stroke-linejoin: miter"/>
    </g>
    <g id="line2d_29">
     <path d="M 52.67 62.428594 
L 61.67 62.428594 
L 70.67 62.428594 
" style="fill: none; stroke: #e74c3c; stroke-width: 2; stroke-linecap: square"/>
    </g>
    <g id="text_17">
     <!-- Pure Neural (Pearl DQN) -->
     <g transform="translate(77.87 65.578594) scale(0.09 -0.09)">
      <defs>
       <path id="DejaVuSans-50" d="M 1259 4147 
L 1259 2394 
L 2053 2394 
Q 2494 2394 2734 2622 
Q 2975 2850 2975 3272 
Q 2975 3691 2734 3919 
Q 2494 4147 2053 4147 
L 1259 4147 
z
M 628 4666 
L 2053 4666 
Q 2838 4666 3239 4311 
Q 3641 3956 3641 3272 
Q 3641 2581 3239 2228 
Q 2838 1875 2053 1875 
L 1259 1875 
L 1259 0 
L 628 0 
L 628 4666 
z
" transform="scale(0.015625)"/>
       <path id="DejaVuSans-4e" d="M 628 4666 
L 1478 4666 
L 3547 763 
L 3547 4666 
L 4159 4666 
L 4159 0 
L 3309 0 
L 1241 3903 
L 1241 0 
L 628 0 
L 628 4666 
z
" transform="scale(0.015625)"/>
       <path id="DejaVuSans-6c" d="M 603 4863 
L 1178 4863 
L 1178 0 
L 603 0 
L 603 4863 
z
" transform="scale(0.015625)"/>
       <path id="DejaVuSans-28" d="M 1984 4856 
Q 1566 4138 1362 3434 
Q 1159 2731 1159 2009 
Q 1159 1288 1364 580 
Q 1569 -128 1984 -844 
L 1484 -844 
Q 1016 -109 783 600 
Q 550 1309 550 2009 
Q 550 2706 781 3412 
Q 1013 4119 1484 4856 
L 1984 4856 
z
" transform="scale(0.015625)"/>
       <path id="DejaVuSans-44" d="M 1259 4147 
L 1259 519 
L 2022 519 
Q 2988 519 3436 956 
Q 3884 1394 3884 2338 
Q 3884 3275 3436 3711 
Q 2988 4147 2022 4147 
L 1259 4147 
z
M 628 4666 
L 1925 4666 
Q 3281 4666 3915 4102 
Q 4550 3538 4550 2338 
Q 4550 1131 3912 565 
Q 3275 0 1925 0 
L 628 0 
L 628 4666 
z
" transform="scale(0.015625)"/>
       <path id="DejaVuSans-51" d="M 2522 4238 
Q 1834 4238 1429 3725 
Q 1025 3213 1025 2328 
Q 1025 1447 1429 934 
Q 1834 422 2522 422 
Q 3209 422 3611 934 
Q 4013 1447 4013 2328 
Q 4013 3213 3611 3725 
Q 3209 4238 2522 4238 
z
M 3406 84 
L 4238 -825 
L 3475 -825 
L 2784 -78 
Q 2681 -84 2626 -87 
Q 2572 -91 2522 -91 
Q 1538 -91 948 567 
Q 359 1225 359 2328 
Q 359 3434 948 4092 
Q 1538 4750 2522 4750 
Q 3503 4750 4090 4092 
Q 4678 3434 4678 2328 
Q 4678 1516 4351 937 
Q 4025 359 3406 84 
z
" transform="scale(0.015625)"/>
       <path id="DejaVuSans-29" d="M 513 4856 
L 1013 4856 
Q 1481 4119 1714 3412 
Q 1947 2706 1947 2009 
Q 1947 1309 1714 600 
Q 1481 -109 1013 -844 
L 513 -844 
Q 928 -128 1133 580 
Q 1338 1288 1338 2009 
Q 1338 2731 1133 3434 
Q 928 4138 513 4856 
z
" transform="scale(0.015625)"/>
      </defs>
      <use xlink:href="#DejaVuSans-50"/>
      <use xlink:href="#DejaVuSans-75" transform="translate(58.552734 0)"/>
      <use xlink:href="#DejaVuSans-72" transform="translate(121.931641 0)"/>
      <use xlink:href="#DejaVuSans-65" transform="translate(160.794922 0)"/>
      <use xlink:href="#DejaVuSans-20" transform="translate(222.318359 0)"/>
      <use xlink:href="#DejaVuSans-4e" transform="translate(254.105469 0)"/>
      <use xlink:href="#DejaVuSans-65" transform="translate(328.910156 0)"/>
      <use xlink:href="#DejaVuSans-75" transform="translate(390.433594 0)"/>
      <use xlink:href="#DejaVuSans-72" transform="translate(453.8125 0)"/>
      <use xlink:href="#DejaVuSans-61" transform="translate(494.925781 0)"/>
      <use xlink:href="#DejaVuSans-6c" transform="translate(556.205078 0)"/>
      <use xlink:href="#DejaVuSans-20" transform="translate(583.988281 0)"/>
      <use xlink:href="#DejaVuSans-28" transform="translate(615.775391 0)"/>
      <use xlink:href="#DejaVuSans-50" transform="translate(654.789062 0)"/>
      <use xlink:href="#DejaVuSans-65" transform="translate(711.466797 0)"/>
      <use xlink:href="#DejaVuSans-61" transform="translate(772.990234 0)"/>
      <use xlink:href="#DejaVuSans-72" transform="translate(834.269531 0)"/>
      <use xlink:href="#DejaVuSans-6c" transform="translate(875.382812 0)"/>
      <use xlink:href="#DejaVuSans-20" transform="translate(903.166016 0)"/>
      <use xlink:href="#DejaVuSans-44" transform="translate(934.953125 0)"/>
      <use xlink:href="#DejaVuSans-51" transform="translate(1011.955078 0)"/>
      <use xlink:href="#DejaVuSans-4e" transform="translate(1090.666016 0)"/>
      <use xlink:href="#DejaVuSans-29" transform="translate(1165.470703 0)"/>
     </g>
    </g>
    <g id="line2d_30">
     <path d="M 52.67 75.638906 
L 61.67 75.638906 
L 70.67 75.638906 
" style="fill: none; stroke: #3498db; stroke-width: 2; stroke-linecap: square"/>
    </g>
    <g id="text_18">
     <!-- NeuroSymbolic (Shielded Pearl DQN) -->
     <g transform="translate(77.87 78.788906) scale(0.09 -0.09)">
      <defs>
       <path id="DejaVuSans-53" d="M 3425 4513 
L 3425 3897 
Q 3066 4069 2747 4153 
Q 2428 4238 2131 4238 
Q 1616 4238 1336 4038 
Q 1056 3838 1056 3469 
Q 1056 3159 1242 3001 
Q 1428 2844 1947 2747 
L 2328 2669 
Q 3034 2534 3370 2195 
Q 3706 1856 3706 1288 
Q 3706 609 3251 259 
Q 2797 -91 1919 -91 
Q 1588 -91 1214 -16 
Q 841 59 441 206 
L 441 856 
Q 825 641 1194 531 
Q 1563 422 1919 422 
Q 2459 422 2753 634 
Q 3047 847 3047 1241 
Q 3047 1584 2836 1778 
Q 2625 1972 2144 2069 
L 1759 2144 
Q 1053 2284 737 2584 
Q 422 2884 422 3419 
Q 422 4038 858 4394 
Q 1294 4750 2059 4750 
Q 2388 4750 2728 4690 
Q 3069 4631 3425 4513 
z
" transform="scale(0.015625)"/>
       <path id="DejaVuSans-79" d="M 2059 -325 
Q 1816 -950 1584 -1140 
Q 1353 -1331 966 -1331 
L 506 -1331 
L 506 -850 
L 844 -850 
Q 1081 -850 1212 -737 
Q 1344 -625 1503 -206 
L 1606 56 
L 191 3500 
L 800 3500 
L 1894 763 
L 2988 3500 
L 3597 3500 
L 2059 -325 
z
" transform="scale(0.015625)"/>
       <path id="DejaVuSans-62" d="M 3116 1747 
Q 3116 2381 2855 2742 
Q 2594 3103 2138 3103 
Q 1681 3103 1420 2742 
Q 1159 2381 1159 1747 
Q 1159 1113 1420 752 
Q 1681 391 2138 391 
Q 2594 391 2855 752 
Q 3116 1113 3116 1747 
z
M 1159 2969 
Q 1341 3281 1617 3432 
Q 1894 3584 2278 3584 
Q 2916 3584 3314 3078 
Q 3713 2572 3713 1747 
Q 3713 922 3314 415 
Q 2916 -91 2278 -91 
Q 1894 -91 1617 61 
Q 1341 213 1159 525 
L 1159 0 
L 581 0 
L 581 4863 
L 1159 4863 
L 1159 2969 
z
" transform="scale(0.015625)"/>
       <path id="DejaVuSans-63" d="M 3122 3366 
L 3122 2828 
Q 2878 2963 2633 3030 
Q 2388 3097 2138 3097 
Q 1578 3097 1268 2742 
Q 959 2388 959 1747 
Q 959 1106 1268 751 
Q 1578 397 2138 397 
Q 2388 397 2633 464 
Q 2878 531 3122 666 
L 3122 134 
Q 2881 22 2623 -34 
Q 2366 -91 2075 -91 
Q 1284 -91 818 406 
Q 353 903 353 1747 
Q 353 2603 823 3093 
Q 1294 3584 2113 3584 
Q 2378 3584 2631 3529 
Q 2884 3475 3122 3366 
z
" transform="scale(0.015625)"/>
       <path id="DejaVuSans-68" d="M 3513 2113 
L 3513 0 
L 2938 0 
L 2938 2094 
Q 2938 2591 2744 2837 
Q 2550 3084 2163 3084 
Q 1697 3084 1428 2787 
Q 1159 2491 1159 1978 
L 1159 0 
L 581 0 
L 581 4863 
L 1159 4863 
L 1159 2956 
Q 1366 3272 1645 3428 
Q 1925 3584 2291 3584 
Q 2894 3584 3203 3211 
Q 3513 2838 3513 2113 
z
" transform="scale(0.015625)"/>
      </defs>
      <use xlink:href="#DejaVuSans-4e"/>
      <use xlink:href="#DejaVuSans-65" transform="translate(74.804688 0)"/>
      <use xlink:href="#DejaVuSans-75" transform="translate(136.328125 0)"/>
      <use xlink:href="#DejaVuSans-72" transform="translate(199.707031 0)"/>
      <use xlink:href="#DejaVuSans-6f" transform="translate(238.570312 0)"/>
      <use xlink:href="#DejaVuSans-53" transform="translate(299.751953 0)"/>
      <use xlink:href="#DejaVuSans-79" transform="translate(363.228516 0)"/>
      <use xlink:href="#DejaVuSans-6d" transform="translate(422.408203 0)"/>
      <use xlink:href="#DejaVuSans-62" transform="translate(519.820312 0)"/>
      <use xlink:href="#DejaVuSans-6f" transform="translate(583.296875 0)"/>
      <use xlink:href="#DejaVuSans-6c" transform="translate(644.478516 0)"/>
      <use xlink:href="#DejaVuSans-69" transform="translate(672.261719 0)"/>
      <use xlink:href="#DejaVuSans-63" transform="translate(700.044922 0)"/>
      <use xlink:href="#DejaVuSans-20" transform="translate(755.025391 0)"/>
      <use xlink:href="#DejaVuSans-28" transform="translate(786.8125 0)"/>
      <use xlink:href="#DejaVuSans-53" transform="translate(825.826172 0)"/>
      <use xlink:href="#DejaVuSans-68" transform="translate(889.302734 0)"/>
      <use xlink:href="#DejaVuSans-69" transform="translate(952.681641 0)"/>
      <use xlink:href="#DejaVuSans-65" transform="translate(980.464844 0)"/>
      <use xlink:href="#DejaVuSans-6c" transform="translate(1041.988281 0)"/>
      <use xlink:href="#DejaVuSans-64" transform="translate(1069.771484 0)"/>
      <use xlink:href="#DejaVuSans-65" transform="translate(1133.248047 0)"/>
      <use xlink:href="#DejaVuSans-64" transform="translate(1194.771484 0)"/>
      <use xlink:href="#DejaVuSans-20" transform="translate(1258.248047 0)"/>
      <use xlink:href="#DejaVuSans-50" transform="translate(1290.035156 0)"/>
      <use xlink:href="#DejaVuSans-65" transform="translate(1346.712891 0)"/>
      <use xlink:href="#DejaVuSans-61" transform="translate(1408.236328 0)"/>
      <use xlink:href="#DejaVuSans-72" transform="translate(1469.515625 0)"/>
      <use xlink:href="#DejaVuSans-6c" transform="translate(1510.628906 0)"/>
      <use xlink:href="#DejaVuSans-20" transform="translate(1538.412109 0)"/>
      <use xlink:href="#DejaVuSans-44" transform="translate(1570.199219 0)"/>
      <use xlink:href="#DejaVuSans-51" transform="translate(1647.201172 0)"/>
      <use xlink:href="#DejaVuSans-4e" transform="translate(1725.912109 0)"/>
      <use xlink:href="#DejaVuSans-29" transform="translate(1800.716797 0)"/>
     </g>
    </g>
   </g>
  </g>
  <g id="axes_2">
   <g id="patch_8">
    <path d="M 472.745 282.04 
L 851.732479 282.04 
L 851.732479 50.64 
L 472.745 50.64 
z
" style="fill: #ffffff"/>
   </g>
   <g id="matplotlib.axis_3">
    <g id="xtick_7">
     <g id="line2d_31">
      <path d="M 479.205014 282.04 
L 479.205014 50.64 
" clip-path="url(#pb369d63aff)" style="fill: none; stroke: #b0b0b0; stroke-opacity: 0.3; stroke-width: 0.8; stroke-linecap: square"/>
     </g>
     <g id="line2d_32">
      <g>
       <use xlink:href="#m9a9ca5d009" x="479.205014" y="282.04" style="stroke: #000000; stroke-width: 0.8"/>
      </g>
     </g>
     <g id="text_19">
      <!-- 0k -->
      <g transform="translate(473.128451 296.638438) scale(0.1 -0.1)">
       <use xlink:href="#DejaVuSans-30"/>
       <use xlink:href="#DejaVuSans-6b" transform="translate(63.623047 0)"/>
      </g>
     </g>
    </g>
    <g id="xtick_8">
     <g id="line2d_33">
      <path d="M 550.982946 282.04 
L 550.982946 50.64 
" clip-path="url(#pb369d63aff)" style="fill: none; stroke: #b0b0b0; stroke-opacity: 0.3; stroke-width: 0.8; stroke-linecap: square"/>
     </g>
     <g id="line2d_34">
      <g>
       <use xlink:href="#m9a9ca5d009" x="550.982946" y="282.04" style="stroke: #000000; stroke-width: 0.8"/>
      </g>
     </g>
     <g id="text_20">
      <!-- 20k -->
      <g transform="translate(541.725133 296.638438) scale(0.1 -0.1)">
       <use xlink:href="#DejaVuSans-32"/>
       <use xlink:href="#DejaVuSans-30" transform="translate(63.623047 0)"/>
       <use xlink:href="#DejaVuSans-6b" transform="translate(127.246094 0)"/>
      </g>
     </g>
    </g>
    <g id="xtick_9">
     <g id="line2d_35">
      <path d="M 622.760877 282.04 
L 622.760877 50.64 
" clip-path="url(#pb369d63aff)" style="fill: none; stroke: #b0b0b0; stroke-opacity: 0.3; stroke-width: 0.8; stroke-linecap: square"/>
     </g>
     <g id="line2d_36">
      <g>
       <use xlink:href="#m9a9ca5d009" x="622.760877" y="282.04" style="stroke: #000000; stroke-width: 0.8"/>
      </g>
     </g>
     <g id="text_21">
      <!-- 40k -->
      <g transform="translate(613.503065 296.638438) scale(0.1 -0.1)">
       <use xlink:href="#DejaVuSans-34"/>
       <use xlink:href="#DejaVuSans-30" transform="translate(63.623047 0)"/>
       <use xlink:href="#DejaVuSans-6b" transform="translate(127.246094 0)"/>
      </g>
     </g>
    </g>
    <g id="xtick_10">
     <g id="line2d_37">
      <path d="M 694.538809 282.04 
L 694.538809 50.64 
" clip-path="url(#pb369d63aff)" style="fill: none; stroke: #b0b0b0; stroke-opacity: 0.3; stroke-width: 0.8; stroke-linecap: square"/>
     </g>
     <g id="line2d_38">
      <g>
       <use xlink:href="#m9a9ca5d009" x="694.538809" y="282.04" style="stroke: #000000; stroke-width: 0.8"/>
      </g>
     </g>
     <g id="text_22">
      <!-- 60k -->
      <g transform="translate(685.280996 296.638438) scale(0.1 -0.1)">
       <use xlink:href="#DejaVuSans-36"/>
       <use xlink:href="#DejaVuSans-30" transform="translate(63.623047 0)"/>
       <use xlink:href="#DejaVuSans-6b" transform="translate(127.246094 0)"/>
      </g>
     </g>
    </g>
    <g id="xtick_11">
     <g id="line2d_39">
      <path d="M 766.316741 282.04 
L 766.316741 50.64 
" clip-path="url(#pb369d63aff)" style="fill: none; stroke: #b0b0b0; stroke-opacity: 0.3; stroke-width: 0.8; stroke-linecap: square"/>
     </g>
     <g id="line2d_40">
      <g>
       <use xlink:href="#m9a9ca5d009" x="766.316741" y="282.04" style="stroke: #000000; stroke-width: 0.8"/>
      </g>
     </g>
     <g id="text_23">
      <!-- 80k -->
      <g transform="translate(757.058928 296.638438) scale(0.1 -0.1)">
       <use xlink:href="#DejaVuSans-38"/>
       <use xlink:href="#DejaVuSans-30" transform="translate(63.623047 0)"/>
       <use xlink:href="#DejaVuSans-6b" transform="translate(127.246094 0)"/>
      </g>
     </g>
    </g>
    <g id="xtick_12">
     <g id="line2d_41">
      <path d="M 838.094672 282.04 
L 838.094672 50.64 
" clip-path="url(#pb369d63aff)" style="fill: none; stroke: #b0b0b0; stroke-opacity: 0.3; stroke-width: 0.8; stroke-linecap: square"/>
     </g>
     <g id="line2d_42">
      <g>
       <use xlink:href="#m9a9ca5d009" x="838.094672" y="282.04" style="stroke: #000000; stroke-width: 0.8"/>
      </g>
     </g>
     <g id="text_24">
      <!-- 100k -->
      <g transform="translate(825.65561 296.638438) scale(0.1 -0.1)">
       <use xlink:href="#DejaVuSans-31"/>
       <use xlink:href="#DejaVuSans-30" transform="translate(63.623047 0)"/>
       <use xlink:href="#DejaVuSans-30" transform="translate(127.246094 0)"/>
       <use xlink:href="#DejaVuSans-6b" transform="translate(190.869141 0)"/>
      </g>
     </g>
    </g>
    <g id="text_25">
     <!-- Training timesteps -->
     <g transform="translate(616.20749 310.316563) scale(0.1 -0.1)">
      <use xlink:href="#DejaVuSans-54"/>
      <use xlink:href="#DejaVuSans-72" transform="translate(46.333984 0)"/>
      <use xlink:href="#DejaVuSans-61" transform="translate(87.447266 0)"/>
      <use xlink:href="#DejaVuSans-69" transform="translate(148.726562 0)"/>
      <use xlink:href="#DejaVuSans-6e" transform="translate(176.509766 0)"/>
      <use xlink:href="#DejaVuSans-69" transform="translate(239.888672 0)"/>
      <use xlink:href="#DejaVuSans-6e" transform="translate(267.671875 0)"/>
      <use xlink:href="#DejaVuSans-67" transform="translate(331.050781 0)"/>
      <use xlink:href="#DejaVuSans-20" transform="translate(394.527344 0)"/>
      <use xlink:href="#DejaVuSans-74" transform="translate(426.314453 0)"/>
      <use xlink:href="#DejaVuSans-69" transform="translate(465.523438 0)"/>
      <use xlink:href="#DejaVuSans-6d" transform="translate(493.306641 0)"/>
      <use xlink:href="#DejaVuSans-65" transform="translate(590.71875 0)"/>
      <use xlink:href="#DejaVuSans-73" transform="translate(652.242188 0)"/>
      <use xlink:href="#DejaVuSans-74" transform="translate(704.341797 0)"/>
      <use xlink:href="#DejaVuSans-65" transform="translate(743.550781 0)"/>
      <use xlink:href="#DejaVuSans-70" transform="translate(805.074219 0)"/>
      <use xlink:href="#DejaVuSans-73" transform="translate(868.550781 0)"/>
     </g>
    </g>
   </g>
   <g id="matplotlib.axis_4">
    <g id="ytick_8">
     <g id="line2d_43">
      <path d="M 472.745 271.521818 
L 851.732479 271.521818 
" clip-path="url(#pb369d63aff)" style="fill: none; stroke: #b0b0b0; stroke-opacity: 0.3; stroke-width: 0.8; stroke-linecap: square"/>
     </g>
     <g id="line2d_44">
      <g>
       <use xlink:href="#m1ad0d0b55f" x="472.745" y="271.521818" style="stroke: #000000; stroke-width: 0.8"/>
      </g>
     </g>
     <g id="text_26">
      <!-- 0.0 -->
      <g transform="translate(449.841875 275.321037) scale(0.1 -0.1)">
       <defs>
        <path id="DejaVuSans-2e" d="M 684 794 
L 1344 794 
L 1344 0 
L 684 0 
L 684 794 
z
" transform="scale(0.015625)"/>
       </defs>
       <use xlink:href="#DejaVuSans-30"/>
       <use xlink:href="#DejaVuSans-2e" transform="translate(63.623047 0)"/>
       <use xlink:href="#DejaVuSans-30" transform="translate(95.410156 0)"/>
      </g>
     </g>
    </g>
    <g id="ytick_9">
     <g id="line2d_45">
      <path d="M 472.745 229.449091 
L 851.732479 229.449091 
" clip-path="url(#pb369d63aff)" style="fill: none; stroke: #b0b0b0; stroke-opacity: 0.3; stroke-width: 0.8; stroke-linecap: square"/>
     </g>
     <g id="line2d_46">
      <g>
       <use xlink:href="#m1ad0d0b55f" x="472.745" y="229.449091" style="stroke: #000000; stroke-width: 0.8"/>
      </g>
     </g>
     <g id="text_27">
      <!-- 0.2 -->
      <g transform="translate(449.841875 233.24831) scale(0.1 -0.1)">
       <use xlink:href="#DejaVuSans-30"/>
       <use xlink:href="#DejaVuSans-2e" transform="translate(63.623047 0)"/>
       <use xlink:href="#DejaVuSans-32" transform="translate(95.410156 0)"/>
      </g>
     </g>
    </g>
    <g id="ytick_10">
     <g id="line2d_47">
      <path d="M 472.745 187.376364 
L 851.732479 187.376364 
" clip-path="url(#pb369d63aff)" style="fill: none; stroke: #b0b0b0; stroke-opacity: 0.3; stroke-width: 0.8; stroke-linecap: square"/>
     </g>
     <g id="line2d_48">
      <g>
       <use xlink:href="#m1ad0d0b55f" x="472.745" y="187.376364" style="stroke: #000000; stroke-width: 0.8"/>
      </g>
     </g>
     <g id="text_28">
      <!-- 0.4 -->
      <g transform="translate(449.841875 191.175582) scale(0.1 -0.1)">
       <use xlink:href="#DejaVuSans-30"/>
       <use xlink:href="#DejaVuSans-2e" transform="translate(63.623047 0)"/>
       <use xlink:href="#DejaVuSans-34" transform="translate(95.410156 0)"/>
      </g>
     </g>
    </g>
    <g id="ytick_11">
     <g id="line2d_49">
      <path d="M 472.745 145.303636 
L 851.732479 145.303636 
" clip-path="url(#pb369d63aff)" style="fill: none; stroke: #b0b0b0; stroke-opacity: 0.3; stroke-width: 0.8; stroke-linecap: square"/>
     </g>
     <g id="line2d_50">
      <g>
       <use xlink:href="#m1ad0d0b55f" x="472.745" y="145.303636" style="stroke: #000000; stroke-width: 0.8"/>
      </g>
     </g>
     <g id="text_29">
      <!-- 0.6 -->
      <g transform="translate(449.841875 149.102855) scale(0.1 -0.1)">
       <use xlink:href="#DejaVuSans-30"/>
       <use xlink:href="#DejaVuSans-2e" transform="translate(63.623047 0)"/>
       <use xlink:href="#DejaVuSans-36" transform="translate(95.410156 0)"/>
      </g>
     </g>
    </g>
    <g id="ytick_12">
     <g id="line2d_51">
      <path d="M 472.745 103.230909 
L 851.732479 103.230909 
" clip-path="url(#pb369d63aff)" style="fill: none; stroke: #b0b0b0; stroke-opacity: 0.3; stroke-width: 0.8; stroke-linecap: square"/>
     </g>
     <g id="line2d_52">
      <g>
       <use xlink:href="#m1ad0d0b55f" x="472.745" y="103.230909" style="stroke: #000000; stroke-width: 0.8"/>
      </g>
     </g>
     <g id="text_30">
      <!-- 0.8 -->
      <g transform="translate(449.841875 107.030128) scale(0.1 -0.1)">
       <use xlink:href="#DejaVuSans-30"/>
       <use xlink:href="#DejaVuSans-2e" transform="translate(63.623047 0)"/>
       <use xlink:href="#DejaVuSans-38" transform="translate(95.410156 0)"/>
      </g>
     </g>
    </g>
    <g id="ytick_13">
     <g id="line2d_53">
      <path d="M 472.745 61.158182 
L 851.732479 61.158182 
" clip-path="url(#pb369d63aff)" style="fill: none; stroke: #b0b0b0; stroke-opacity: 0.3; stroke-width: 0.8; stroke-linecap: square"/>
     </g>
     <g id="line2d_54">
      <g>
       <use xlink:href="#m1ad0d0b55f" x="472.745" y="61.158182" style="stroke: #000000; stroke-width: 0.8"/>
      </g>
     </g>
     <g id="text_31">
      <!-- 1.0 -->
      <g transform="translate(449.841875 64.957401) scale(0.1 -0.1)">
       <use xlink:href="#DejaVuSans-31"/>
       <use xlink:href="#DejaVuSans-2e" transform="translate(63.623047 0)"/>
       <use xlink:href="#DejaVuSans-30" transform="translate(95.410156 0)"/>
      </g>
     </g>
    </g>
    <g id="text_32">
     <!-- Crash rate -->
     <g transform="translate(443.762188 192.469687) rotate(-90) scale(0.1 -0.1)">
      <defs>
       <path id="DejaVuSans-43" d="M 4122 4306 
L 4122 3641 
Q 3803 3938 3442 4084 
Q 3081 4231 2675 4231 
Q 1875 4231 1450 3742 
Q 1025 3253 1025 2328 
Q 1025 1406 1450 917 
Q 1875 428 2675 428 
Q 3081 428 3442 575 
Q 3803 722 4122 1019 
L 4122 359 
Q 3791 134 3420 21 
Q 3050 -91 2638 -91 
Q 1578 -91 968 557 
Q 359 1206 359 2328 
Q 359 3453 968 4101 
Q 1578 4750 2638 4750 
Q 3056 4750 3426 4639 
Q 3797 4528 4122 4306 
z
" transform="scale(0.015625)"/>
      </defs>
      <use xlink:href="#DejaVuSans-43"/>
      <use xlink:href="#DejaVuSans-72" transform="translate(69.824219 0)"/>
      <use xlink:href="#DejaVuSans-61" transform="translate(110.9375 0)"/>
      <use xlink:href="#DejaVuSans-73" transform="translate(172.216797 0)"/>
      <use xlink:href="#DejaVuSans-68" transform="translate(224.316406 0)"/>
      <use xlink:href="#DejaVuSans-20" transform="translate(287.695312 0)"/>
      <use xlink:href="#DejaVuSans-72" transform="translate(319.482422 0)"/>
      <use xlink:href="#DejaVuSans-61" transform="translate(360.595703 0)"/>
      <use xlink:href="#DejaVuSans-74" transform="translate(421.875 0)"/>
      <use xlink:href="#DejaVuSans-65" transform="translate(461.083984 0)"/>
     </g>
    </g>
   </g>
   <g id="line2d_55">
    <path d="M 489.971704 61.158182 
L 500.738393 61.158182 
L 511.505083 61.158182 
L 522.271773 61.158182 
L 533.038463 61.158182 
L 543.805152 145.303636 
L 554.571842 103.230909 
L 565.338532 61.158182 
L 576.105222 271.521818 
L 586.871911 187.376364 
L 489.971704 61.158182 
L 500.738393 61.158182 
L 511.505083 103.230909 
L 522.271773 145.303636 
L 533.038463 103.230909 
L 543.805152 103.230909 
L 554.571842 145.303636 
L 565.338532 103.230909 
L 576.105222 61.158182 
L 586.871911 187.376364 
L 489.971704 61.158182 
L 500.738393 61.158182 
L 511.505083 61.158182 
L 522.271773 145.303636 
L 533.038463 103.230909 
L 543.805152 103.230909 
L 554.571842 187.376364 
L 565.338532 145.303636 
L 576.105222 61.158182 
L 586.871911 103.230909 
L 597.638601 61.158182 
L 608.405291 103.230909 
L 619.171981 61.158182 
L 629.93867 61.158182 
L 640.70536 145.303636 
L 651.47205 145.303636 
L 662.23874 61.158182 
L 673.005429 103.230909 
L 683.772119 61.158182 
L 694.538809 145.303636 
L 705.305499 103.230909 
L 716.072188 61.158182 
L 726.838878 103.230909 
L 737.605568 103.230909 
L 748.372258 271.521818 
L 759.138947 61.158182 
L 769.905637 187.376364 
L 780.672327 103.230909 
L 791.439017 187.376364 
L 802.205706 103.230909 
L 812.972396 103.230909 
L 823.739086 103.230909 
L 834.505776 103.230909 
" clip-path="url(#pb369d63aff)" style="fill: none; stroke: #e74c3c; stroke-width: 2; stroke-linecap: square"/>
   </g>
   <g id="line2d_56">
    <path d="M 489.971704 103.230909 
L 500.738393 145.303636 
L 511.505083 145.303636 
L 522.271773 61.158182 
L 533.038463 103.230909 
L 543.805152 103.230909 
L 554.571842 61.158182 
L 565.338532 61.158182 
L 576.105222 187.376364 
L 586.871911 103.230909 
L 489.971704 103.230909 
L 500.738393 187.376364 
L 511.505083 229.449091 
L 522.271773 145.303636 
L 533.038463 271.521818 
L 543.805152 103.230909 
L 554.571842 187.376364 
L 565.338532 187.376364 
L 576.105222 187.376364 
L 586.871911 229.449091 
L 489.971704 229.449091 
L 500.738393 145.303636 
L 511.505083 187.376364 
L 522.271773 103.230909 
L 533.038463 103.230909 
L 543.805152 145.303636 
L 554.571842 145.303636 
L 565.338532 229.449091 
L 576.105222 229.449091 
L 586.871911 103.230909 
L 597.638601 187.376364 
L 608.405291 145.303636 
L 619.171981 103.230909 
L 629.93867 229.449091 
L 640.70536 103.230909 
L 651.47205 229.449091 
L 662.23874 103.230909 
L 673.005429 229.449091 
L 683.772119 187.376364 
L 694.538809 187.376364 
L 705.305499 103.230909 
L 716.072188 61.158182 
L 726.838878 187.376364 
L 737.605568 187.376364 
L 748.372258 187.376364 
L 759.138947 187.376364 
L 769.905637 229.449091 
L 780.672327 187.376364 
L 791.439017 103.230909 
L 802.205706 145.303636 
L 812.972396 145.303636 
L 823.739086 187.376364 
L 834.505776 187.376364 
" clip-path="url(#pb369d63aff)" style="fill: none; stroke: #3498db; stroke-width: 2; stroke-linecap: square"/>
   </g>
   <g id="patch_9">
    <path d="M 472.745 282.04 
L 472.745 50.64 
" style="fill: none; stroke: #000000; stroke-width: 0.8; stroke-linejoin: miter; stroke-linecap: square"/>
   </g>
   <g id="patch_10">
    <path d="M 851.732479 282.04 
L 851.732479 50.64 
" style="fill: none; stroke: #000000; stroke-width: 0.8; stroke-linejoin: miter; stroke-linecap: square"/>
   </g>
   <g id="patch_11">
    <path d="M 472.745 282.04 
L 851.732479 282.04 
" style="fill: none; stroke: #000000; stroke-width: 0.8; stroke-linejoin: miter; stroke-linecap: square"/>
   </g>
   <g id="patch_12">
    <path d="M 472.745 50.64 
L 851.732479 50.64 
" style="fill: none; stroke: #000000; stroke-width: 0.8; stroke-linejoin: miter; stroke-linecap: square"/>
   </g>
   <g id="text_33">
    <!-- Crash rate during training -->
    <g transform="translate(584.469365 44.64) scale(0.12 -0.12)">
     <use xlink:href="#DejaVuSans-43"/>
     <use xlink:href="#DejaVuSans-72" transform="translate(69.824219 0)"/>
     <use xlink:href="#DejaVuSans-61" transform="translate(110.9375 0)"/>
     <use xlink:href="#DejaVuSans-73" transform="translate(172.216797 0)"/>
     <use xlink:href="#DejaVuSans-68" transform="translate(224.316406 0)"/>
     <use xlink:href="#DejaVuSans-20" transform="translate(287.695312 0)"/>
     <use xlink:href="#DejaVuSans-72" transform="translate(319.482422 0)"/>
     <use xlink:href="#DejaVuSans-61" transform="translate(360.595703 0)"/>
     <use xlink:href="#DejaVuSans-74" transform="translate(421.875 0)"/>
     <use xlink:href="#DejaVuSans-65" transform="translate(461.083984 0)"/>
     <use xlink:href="#DejaVuSans-20" transform="translate(522.607422 0)"/>
     <use xlink:href="#DejaVuSans-64" transform="translate(554.394531 0)"/>
     <use xlink:href="#DejaVuSans-75" transform="translate(617.871094 0)"/>
     <use xlink:href="#DejaVuSans-72" transform="translate(681.25 0)"/>
     <use xlink:href="#DejaVuSans-69" transform="translate(722.363281 0)"/>
     <use xlink:href="#DejaVuSans-6e" transform="translate(750.146484 0)"/>
     <use xlink:href="#DejaVuSans-67" transform="translate(813.525391 0)"/>
     <use xlink:href="#DejaVuSans-20" transform="translate(877.001953 0)"/>
     <use xlink:href="#DejaVuSans-74" transform="translate(908.789062 0)"/>
     <use xlink:href="#DejaVuSans-72" transform="translate(947.998047 0)"/>
     <use xlink:href="#DejaVuSans-61" transform="translate(989.111328 0)"/>
     <use xlink:href="#DejaVuSans-69" transform="translate(1050.390625 0)"/>
     <use xlink:href="#DejaVuSans-6e" transform="translate(1078.173828 0)"/>
     <use xlink:href="#DejaVuSans-69" transform="translate(1141.552734 0)"/>
     <use xlink:href="#DejaVuSans-6e" transform="translate(1169.335938 0)"/>
     <use xlink:href="#DejaVuSans-67" transform="translate(1232.714844 0)"/>
    </g>
   </g>
   <g id="legend_2">
    <g id="patch_13">
     <path d="M 651.050761 277.54 
L 845.432479 277.54 
Q 847.232479 277.54 847.232479 275.74 
L 847.232479 250.219375 
Q 847.232479 248.419375 845.432479 248.419375 
L 651.050761 248.419375 
Q 649.250761 248.419375 649.250761 250.219375 
L 649.250761 275.74 
Q 649.250761 277.54 651.050761 277.54 
z
" style="fill: #ffffff; opacity: 0.8; stroke: #cccccc; stroke-linejoin: miter"/>
    </g>
    <g id="line2d_57">
     <path d="M 652.850761 255.707969 
L 661.850761 255.707969 
L 670.850761 255.707969 
" style="fill: none; stroke: #e74c3c; stroke-width: 2; stroke-linecap: square"/>
    </g>
    <g id="text_34">
     <!-- Pure Neural (Pearl DQN) -->
     <g transform="translate(678.050761 258.857969) scale(0.09 -0.09)">
      <use xlink:href="#DejaVuSans-50"/>
      <use xlink:href="#DejaVuSans-75" transform="translate(58.552734 0)"/>
      <use xlink:href="#DejaVuSans-72" transform="translate(121.931641 0)"/>
      <use xlink:href="#DejaVuSans-65" transform="translate(160.794922 0)"/>
      <use xlink:href="#DejaVuSans-20" transform="translate(222.318359 0)"/>
      <use xlink:href="#DejaVuSans-4e" transform="translate(254.105469 0)"/>
      <use xlink:href="#DejaVuSans-65" transform="translate(328.910156 0)"/>
      <use xlink:href="#DejaVuSans-75" transform="translate(390.433594 0)"/>
      <use xlink:href="#DejaVuSans-72" transform="translate(453.8125 0)"/>
      <use xlink:href="#DejaVuSans-61" transform="translate(494.925781 0)"/>
      <use xlink:href="#DejaVuSans-6c" transform="translate(556.205078 0)"/>
      <use xlink:href="#DejaVuSans-20" transform="translate(583.988281 0)"/>
      <use xlink:href="#DejaVuSans-28" transform="translate(615.775391 0)"/>
      <use xlink:href="#DejaVuSans-50" transform="translate(654.789062 0)"/>
      <use xlink:href="#DejaVuSans-65" transform="translate(711.466797 0)"/>
      <use xlink:href="#DejaVuSans-61" transform="translate(772.990234 0)"/>
      <use xlink:href="#DejaVuSans-72" transform="translate(834.269531 0)"/>
      <use xlink:href="#DejaVuSans-6c" transform="translate(875.382812 0)"/>
      <use xlink:href="#DejaVuSans-20" transform="translate(903.166016 0)"/>
      <use xlink:href="#DejaVuSans-44" transform="translate(934.953125 0)"/>
      <use xlink:href="#DejaVuSans-51" transform="translate(1011.955078 0)"/>
      <use xlink:href="#DejaVuSans-4e" transform="translate(1090.666016 0)"/>
      <use xlink:href="#DejaVuSans-29" transform="translate(1165.470703 0)"/>
     </g>
    </g>
    <g id="line2d_58">
     <path d="M 652.850761 268.918281 
L 661.850761 268.918281 
L 670.850761 268.918281 
" style="fill: none; stroke: #3498db; stroke-width: 2; stroke-linecap: square"/>
    </g>
    <g id="text_35">
     <!-- NeuroSymbolic (Shielded Pearl DQN) -->
     <g transform="translate(678.050761 272.068281) scale(0.09 -0.09)">
      <use xlink:href="#DejaVuSans-4e"/>
      <use xlink:href="#DejaVuSans-65" transform="translate(74.804688 0)"/>
      <use xlink:href="#DejaVuSans-75" transform="translate(136.328125 0)"/>
      <use xlink:href="#DejaVuSans-72" transform="translate(199.707031 0)"/>
      <use xlink:href="#DejaVuSans-6f" transform="translate(238.570312 0)"/>
      <use xlink:href="#DejaVuSans-53" transform="translate(299.751953 0)"/>
      <use xlink:href="#DejaVuSans-79" transform="translate(363.228516 0)"/>
      <use xlink:href="#DejaVuSans-6d" transform="translate(422.408203 0)"/>
      <use xlink:href="#DejaVuSans-62" transform="translate(519.820312 0)"/>
      <use xlink:href="#DejaVuSans-6f" transform="translate(583.296875 0)"/>
      <use xlink:href="#DejaVuSans-6c" transform="translate(644.478516 0)"/>
      <use xlink:href="#DejaVuSans-69" transform="translate(672.261719 0)"/>
      <use xlink:href="#DejaVuSans-63" transform="translate(700.044922 0)"/>
      <use xlink:href="#DejaVuSans-20" transform="translate(755.025391 0)"/>
      <use xlink:href="#DejaVuSans-28" transform="translate(786.8125 0)"/>
      <use xlink:href="#DejaVuSans-53" transform="translate(825.826172 0)"/>
      <use xlink:href="#DejaVuSans-68" transform="translate(889.302734 0)"/>
      <use xlink:href="#DejaVuSans-69" transform="translate(952.681641 0)"/>
      <use xlink:href="#DejaVuSans-65" transform="translate(980.464844 0)"/>
      <use xlink:href="#DejaVuSans-6c" transform="translate(1041.988281 0)"/>
      <use xlink:href="#DejaVuSans-64" transform="translate(1069.771484 0)"/>
      <use xlink:href="#DejaVuSans-65" transform="translate(1133.248047 0)"/>
      <use xlink:href="#DejaVuSans-64" transform="translate(1194.771484 0)"/>
      <use xlink:href="#DejaVuSans-20" transform="translate(1258.248047 0)"/>
      <use xlink:href="#DejaVuSans-50" transform="translate(1290.035156 0)"/>
      <use xlink:href="#DejaVuSans-65" transform="translate(1346.712891 0)"/>
      <use xlink:href="#DejaVuSans-61" transform="translate(1408.236328 0)"/>
      <use xlink:href="#DejaVuSans-72" transform="translate(1469.515625 0)"/>
      <use xlink:href="#DejaVuSans-6c" transform="translate(1510.628906 0)"/>
      <use xlink:href="#DejaVuSans-20" transform="translate(1538.412109 0)"/>
      <use xlink:href="#DejaVuSans-44" transform="translate(1570.199219 0)"/>
      <use xlink:href="#DejaVuSans-51" transform="translate(1647.201172 0)"/>
      <use xlink:href="#DejaVuSans-4e" transform="translate(1725.912109 0)"/>
      <use xlink:href="#DejaVuSans-29" transform="translate(1800.716797 0)"/>
     </g>
    </g>
   </g>
  </g>
  <g id="text_36">
   <!-- Training Progress: Neural vs NeuroSymbolic -->
   <g transform="translate(270.568437 16.357969) scale(0.13 -0.13)">
    <defs>
     <path id="DejaVuSans-Bold-54" d="M 31 4666 
L 4331 4666 
L 4331 3756 
L 2784 3756 
L 2784 0 
L 1581 0 
L 1581 3756 
L 31 3756 
L 31 4666 
z
" transform="scale(0.015625)"/>
     <path id="DejaVuSans-Bold-72" d="M 3138 2547 
Q 2991 2616 2845 2648 
Q 2700 2681 2553 2681 
Q 2122 2681 1889 2404 
Q 1656 2128 1656 1613 
L 1656 0 
L 538 0 
L 538 3500 
L 1656 3500 
L 1656 2925 
Q 1872 3269 2151 3426 
Q 2431 3584 2822 3584 
Q 2878 3584 2943 3579 
Q 3009 3575 3134 3559 
L 3138 2547 
z
" transform="scale(0.015625)"/>
     <path id="DejaVuSans-Bold-61" d="M 2106 1575 
Q 1756 1575 1579 1456 
Q 1403 1338 1403 1106 
Q 1403 894 1545 773 
Q 1688 653 1941 653 
Q 2256 653 2472 879 
Q 2688 1106 2688 1447 
L 2688 1575 
L 2106 1575 
z
M 3816 1997 
L 3816 0 
L 2688 0 
L 2688 519 
Q 2463 200 2181 54 
Q 1900 -91 1497 -91 
Q 953 -91 614 226 
Q 275 544 275 1050 
Q 275 1666 698 1953 
Q 1122 2241 2028 2241 
L 2688 2241 
L 2688 2328 
Q 2688 2594 2478 2717 
Q 2269 2841 1825 2841 
Q 1466 2841 1156 2769 
Q 847 2697 581 2553 
L 581 3406 
Q 941 3494 1303 3539 
Q 1666 3584 2028 3584 
Q 2975 3584 3395 3211 
Q 3816 2838 3816 1997 
z
" transform="scale(0.015625)"/>
     <path id="DejaVuSans-Bold-69" d="M 538 3500 
L 1656 3500 
L 1656 0 
L 538 0 
L 538 3500 
z
M 538 4863 
L 1656 4863 
L 1656 3950 
L 538 3950 
L 538 4863 
z
" transform="scale(0.015625)"/>
     <path id="DejaVuSans-Bold-6e" d="M 4056 2131 
L 4056 0 
L 2931 0 
L 2931 347 
L 2931 1631 
Q 2931 2084 2911 2256 
Q 2891 2428 2841 2509 
Q 2775 2619 2662 2680 
Q 2550 2741 2406 2741 
Q 2056 2741 1856 2470 
Q 1656 2200 1656 1722 
L 1656 0 
L 538 0 
L 538 3500 
L 1656 3500 
L 1656 2988 
Q 1909 3294 2193 3439 
Q 2478 3584 2822 3584 
Q 3428 3584 3742 3212 
Q 4056 2841 4056 2131 
z
" transform="scale(0.015625)"/>
     <path id="DejaVuSans-Bold-67" d="M 2919 594 
Q 2688 288 2409 144 
Q 2131 0 1766 0 
Q 1125 0 706 504 
Q 288 1009 288 1791 
Q 288 2575 706 3076 
Q 1125 3578 1766 3578 
Q 2131 3578 2409 3434 
Q 2688 3291 2919 2981 
L 2919 3500 
L 4044 3500 
L 4044 353 
Q 4044 -491 3511 -936 
Q 2978 -1381 1966 -1381 
Q 1638 -1381 1331 -1331 
Q 1025 -1281 716 -1178 
L 716 -306 
Q 1009 -475 1290 -558 
Q 1572 -641 1856 -641 
Q 2406 -641 2662 -400 
Q 2919 -159 2919 353 
L 2919 594 
z
M 2181 2772 
Q 1834 2772 1640 2515 
Q 1447 2259 1447 1791 
Q 1447 1309 1634 1061 
Q 1822 813 2181 813 
Q 2531 813 2725 1069 
Q 2919 1325 2919 1791 
Q 2919 2259 2725 2515 
Q 2531 2772 2181 2772 
z
" transform="scale(0.015625)"/>
     <path id="DejaVuSans-Bold-20" transform="scale(0.015625)"/>
     <path id="DejaVuSans-Bold-50" d="M 588 4666 
L 2584 4666 
Q 3475 4666 3951 4270 
Q 4428 3875 4428 3144 
Q 4428 2409 3951 2014 
Q 3475 1619 2584 1619 
L 1791 1619 
L 1791 0 
L 588 0 
L 588 4666 
z
M 1791 3794 
L 1791 2491 
L 2456 2491 
Q 2806 2491 2997 2661 
Q 3188 2831 3188 3144 
Q 3188 3456 2997 3625 
Q 2806 3794 2456 3794 
L 1791 3794 
z
" transform="scale(0.015625)"/>
     <path id="DejaVuSans-Bold-6f" d="M 2203 2784 
Q 1831 2784 1636 2517 
Q 1441 2250 1441 1747 
Q 1441 1244 1636 976 
Q 1831 709 2203 709 
Q 2569 709 2762 976 
Q 2956 1244 2956 1747 
Q 2956 2250 2762 2517 
Q 2569 2784 2203 2784 
z
M 2203 3584 
Q 3106 3584 3614 3096 
Q 4122 2609 4122 1747 
Q 4122 884 3614 396 
Q 3106 -91 2203 -91 
Q 1297 -91 786 396 
Q 275 884 275 1747 
Q 275 2609 786 3096 
Q 1297 3584 2203 3584 
z
" transform="scale(0.015625)"/>
     <path id="DejaVuSans-Bold-65" d="M 4031 1759 
L 4031 1441 
L 1416 1441 
Q 1456 1047 1700 850 
Q 1944 653 2381 653 
Q 2734 653 3104 758 
Q 3475 863 3866 1075 
L 3866 213 
Q 3469 63 3072 -14 
Q 2675 -91 2278 -91 
Q 1328 -91 801 392 
Q 275 875 275 1747 
Q 275 2603 792 3093 
Q 1309 3584 2216 3584 
Q 3041 3584 3536 3087 
Q 4031 2591 4031 1759 
z
M 2881 2131 
Q 2881 2450 2695 2645 
Q 2509 2841 2209 2841 
Q 1884 2841 1681 2658 
Q 1478 2475 1428 2131 
L 2881 2131 
z
" transform="scale(0.015625)"/>
     <path id="DejaVuSans-Bold-73" d="M 3272 3391 
L 3272 2541 
Q 2913 2691 2578 2766 
Q 2244 2841 1947 2841 
Q 1628 2841 1473 2761 
Q 1319 2681 1319 2516 
Q 1319 2381 1436 2309 
Q 1553 2238 1856 2203 
L 2053 2175 
Q 2913 2066 3209 1816 
Q 3506 1566 3506 1031 
Q 3506 472 3093 190 
Q 2681 -91 1863 -91 
Q 1516 -91 1145 -36 
Q 775 19 384 128 
L 384 978 
Q 719 816 1070 734 
Q 1422 653 1784 653 
Q 2113 653 2278 743 
Q 2444 834 2444 1013 
Q 2444 1163 2330 1236 
Q 2216 1309 1875 1350 
L 1678 1375 
Q 931 1469 631 1722 
Q 331 1975 331 2491 
Q 331 3047 712 3315 
Q 1094 3584 1881 3584 
Q 2191 3584 2531 3537 
Q 2872 3491 3272 3391 
z
" transform="scale(0.015625)"/>
     <path id="DejaVuSans-Bold-3a" d="M 716 3500 
L 1844 3500 
L 1844 2291 
L 716 2291 
L 716 3500 
z
M 716 1209 
L 1844 1209 
L 1844 0 
L 716 0 
L 716 1209 
z
" transform="scale(0.015625)"/>
     <path id="DejaVuSans-Bold-4e" d="M 588 4666 
L 1931 4666 
L 3628 1466 
L 3628 4666 
L 4769 4666 
L 4769 0 
L 3425 0 
L 1728 3200 
L 1728 0 
L 588 0 
L 588 4666 
z
" transform="scale(0.015625)"/>
     <path id="DejaVuSans-Bold-75" d="M 500 1363 
L 500 3500 
L 1625 3500 
L 1625 3150 
Q 1625 2866 1622 2436 
Q 1619 2006 1619 1863 
Q 1619 1441 1641 1255 
Q 1663 1069 1716 984 
Q 1784 875 1895 815 
Q 2006 756 2150 756 
Q 2500 756 2700 1025 
Q 2900 1294 2900 1772 
L 2900 3500 
L 4019 3500 
L 4019 0 
L 2900 0 
L 2900 506 
Q 2647 200 2364 54 
Q 2081 -91 1741 -91 
Q 1134 -91 817 281 
Q 500 653 500 1363 
z
" transform="scale(0.015625)"/>
     <path id="DejaVuSans-Bold-6c" d="M 538 4863 
L 1656 4863 
L 1656 0 
L 538 0 
L 538 4863 
z
" transform="scale(0.015625)"/>
     <path id="DejaVuSans-Bold-76" d="M 97 3500 
L 1216 3500 
L 2088 1081 
L 2956 3500 
L 4078 3500 
L 2700 0 
L 1472 0 
L 97 3500 
z
" transform="scale(0.015625)"/>
     <path id="DejaVuSans-Bold-53" d="M 3834 4519 
L 3834 3531 
Q 3450 3703 3084 3790 
Q 2719 3878 2394 3878 
Q 1963 3878 1756 3759 
Q 1550 3641 1550 3391 
Q 1550 3203 1689 3098 
Q 1828 2994 2194 2919 
L 2706 2816 
Q 3484 2659 3812 2340 
Q 4141 2022 4141 1434 
Q 4141 663 3683 286 
Q 3225 -91 2284 -91 
Q 1841 -91 1394 -6 
Q 947 78 500 244 
L 500 1259 
Q 947 1022 1364 901 
Q 1781 781 2169 781 
Q 2563 781 2772 912 
Q 2981 1044 2981 1288 
Q 2981 1506 2839 1625 
Q 2697 1744 2272 1838 
L 1806 1941 
Q 1106 2091 782 2419 
Q 459 2747 459 3303 
Q 459 4000 909 4375 
Q 1359 4750 2203 4750 
Q 2588 4750 2994 4692 
Q 3400 4634 3834 4519 
z
" transform="scale(0.015625)"/>
     <path id="DejaVuSans-Bold-79" d="M 78 3500 
L 1197 3500 
L 2138 1125 
L 2938 3500 
L 4056 3500 
L 2584 -331 
Q 2363 -916 2067 -1148 
Q 1772 -1381 1288 -1381 
L 641 -1381 
L 641 -647 
L 991 -647 
Q 1275 -647 1404 -556 
Q 1534 -466 1606 -231 
L 1638 -134 
L 78 3500 
z
" transform="scale(0.015625)"/>
     <path id="DejaVuSans-Bold-6d" d="M 3781 2919 
Q 3994 3244 4286 3414 
Q 4578 3584 4928 3584 
Q 5531 3584 5847 3212 
Q 6163 2841 6163 2131 
L 6163 0 
L 5038 0 
L 5038 1825 
Q 5041 1866 5042 1909 
Q 5044 1953 5044 2034 
Q 5044 2406 4934 2573 
Q 4825 2741 4581 2741 
Q 4263 2741 4089 2478 
Q 3916 2216 3909 1719 
L 3909 0 
L 2784 0 
L 2784 1825 
Q 2784 2406 2684 2573 
Q 2584 2741 2328 2741 
Q 2006 2741 1831 2477 
Q 1656 2213 1656 1722 
L 1656 0 
L 531 0 
L 531 3500 
L 1656 3500 
L 1656 2988 
Q 1863 3284 2130 3434 
Q 2397 3584 2719 3584 
Q 3081 3584 3359 3409 
Q 3638 3234 3781 2919 
z
" transform="scale(0.015625)"/>
     <path id="DejaVuSans-Bold-62" d="M 2400 722 
Q 2759 722 2948 984 
Q 3138 1247 3138 1747 
Q 3138 2247 2948 2509 
Q 2759 2772 2400 2772 
Q 2041 2772 1848 2508 
Q 1656 2244 1656 1747 
Q 1656 1250 1848 986 
Q 2041 722 2400 722 
z
M 1656 2988 
Q 1888 3294 2169 3439 
Q 2450 3584 2816 3584 
Q 3463 3584 3878 3070 
Q 4294 2556 4294 1747 
Q 4294 938 3878 423 
Q 3463 -91 2816 -91 
Q 2450 -91 2169 54 
Q 1888 200 1656 506 
L 1656 0 
L 538 0 
L 538 4863 
L 1656 4863 
L 1656 2988 
z
" transform="scale(0.015625)"/>
     <path id="DejaVuSans-Bold-63" d="M 3366 3391 
L 3366 2478 
Q 3138 2634 2908 2709 
Q 2678 2784 2431 2784 
Q 1963 2784 1702 2511 
Q 1441 2238 1441 1747 
Q 1441 1256 1702 982 
Q 1963 709 2431 709 
Q 2694 709 2930 787 
Q 3166 866 3366 1019 
L 3366 103 
Q 3103 6 2833 -42 
Q 2563 -91 2291 -91 
Q 1344 -91 809 395 
Q 275 881 275 1747 
Q 275 2613 809 3098 
Q 1344 3584 2291 3584 
Q 2566 3584 2833 3536 
Q 3100 3488 3366 3391 
z
" transform="scale(0.015625)"/>
    </defs>
    <use xlink:href="#DejaVuSans-Bold-54"/>
    <use xlink:href="#DejaVuSans-Bold-72" transform="translate(57.212891 0)"/>
    <use xlink:href="#DejaVuSans-Bold-61" transform="translate(106.529297 0)"/>
    <use xlink:href="#DejaVuSans-Bold-69" transform="translate(174.009766 0)"/>
    <use xlink:href="#DejaVuSans-Bold-6e" transform="translate(208.287109 0)"/>
    <use xlink:href="#DejaVuSans-Bold-69" transform="translate(279.478516 0)"/>
    <use xlink:href="#DejaVuSans-Bold-6e" transform="translate(313.755859 0)"/>
    <use xlink:href="#DejaVuSans-Bold-67" transform="translate(384.947266 0)"/>
    <use xlink:href="#DejaVuSans-Bold-20" transform="translate(456.529297 0)"/>
    <use xlink:href="#DejaVuSans-Bold-50" transform="translate(491.34375 0)"/>
    <use xlink:href="#DejaVuSans-Bold-72" transform="translate(564.634766 0)"/>
    <use xlink:href="#DejaVuSans-Bold-6f" transform="translate(613.951172 0)"/>
    <use xlink:href="#DejaVuSans-Bold-67" transform="translate(682.652344 0)"/>
    <use xlink:href="#DejaVuSans-Bold-72" transform="translate(754.234375 0)"/>
    <use xlink:href="#DejaVuSans-Bold-65" transform="translate(803.550781 0)"/>
    <use xlink:href="#DejaVuSans-Bold-73" transform="translate(871.373047 0)"/>
    <use xlink:href="#DejaVuSans-Bold-73" transform="translate(930.894531 0)"/>
    <use xlink:href="#DejaVuSans-Bold-3a" transform="translate(990.416016 0)"/>
    <use xlink:href="#DejaVuSans-Bold-20" transform="translate(1030.40625 0)"/>
    <use xlink:href="#DejaVuSans-Bold-4e" transform="translate(1065.220703 0)"/>
    <use xlink:href="#DejaVuSans-Bold-65" transform="translate(1148.912109 0)"/>
    <use xlink:href="#DejaVuSans-Bold-75" transform="translate(1216.734375 0)"/>
    <use xlink:href="#DejaVuSans-Bold-72" transform="translate(1287.925781 0)"/>
    <use xlink:href="#DejaVuSans-Bold-61" transform="translate(1337.242188 0)"/>
    <use xlink:href="#DejaVuSans-Bold-6c" transform="translate(1404.722656 0)"/>
    <use xlink:href="#DejaVuSans-Bold-20" transform="translate(1439 0)"/>
    <use xlink:href="#DejaVuSans-Bold-76" transform="translate(1473.814453 0)"/>
    <use xlink:href="#DejaVuSans-Bold-73" transform="translate(1539 0)"/>
    <use xlink:href="#DejaVuSans-Bold-20" transform="translate(1598.521484 0)"/>
    <use xlink:href="#DejaVuSans-Bold-4e" transform="translate(1633.335938 0)"/>
    <use xlink:href="#DejaVuSans-Bold-65" transform="translate(1717.027344 0)"/>
    <use xlink:href="#DejaVuSans-Bold-75" transform="translate(1784.849609 0)"/>
    <use xlink:href="#DejaVuSans-Bold-72" transform="translate(1856.041016 0)"/>
    <use xlink:href="#DejaVuSans-Bold-6f" transform="translate(1905.357422 0)"/>
    <use xlink:href="#DejaVuSans-Bold-53" transform="translate(1974.058594 0)"/>
    <use xlink:href="#DejaVuSans-Bold-79" transform="translate(2046.080078 0)"/>
    <use xlink:href="#DejaVuSans-Bold-6d" transform="translate(2111.265625 0)"/>
    <use xlink:href="#DejaVuSans-Bold-62" transform="translate(2215.464844 0)"/>
    <use xlink:href="#DejaVuSans-Bold-6f" transform="translate(2287.046875 0)"/>
    <use xlink:href="#DejaVuSans-Bold-6c" transform="translate(2355.748047 0)"/>
    <use xlink:href="#DejaVuSans-Bold-69" transform="translate(2390.025391 0)"/>
    <use xlink:href="#DejaVuSans-Bold-63" transform="translate(2424.302734 0)"/>
   </g>
  </g>
 </g>
 <defs>
  <clipPath id="pa5f476f585">
   <rect x="44.57" y="50.64" width="378.987479" height="231.4"/>
  </clipPath>
  <clipPath id="pb369d63aff">
   <rect x="472.745" y="50.64" width="378.987479" height="231.4"/>
  </clipPath>
 </defs>
</svg>
